<svg width="237" height="128" viewBox="0 0 237 128" fill="none" xmlns="http://www.w3.org/2000/svg">
<path d="M231.792 117.304C231.973 116.996 232.444 116.579 232.843 116.38C233.35 116.126 233.767 116.053 234.202 116.126C234.547 116.18 235.018 116.344 235.236 116.489C235.471 116.634 235.816 117.033 236.015 117.359C236.215 117.667 236.378 118.211 236.378 118.537C236.378 118.846 236.251 119.408 236.106 119.752C235.961 120.097 235.562 120.55 235.254 120.749C234.909 120.949 234.329 121.112 233.931 121.112C233.532 121.112 232.952 120.949 232.625 120.749C232.299 120.55 231.9 120.151 231.755 119.843C231.61 119.553 231.483 118.972 231.483 118.574C231.483 118.175 231.628 117.595 231.792 117.304Z" fill="#2B3D52"/>
<path fill-rule="evenodd" clip-rule="evenodd" d="M215.586 113.859C216.257 113.859 217.073 113.968 217.399 114.095C217.707 114.222 218.269 114.548 218.613 114.802C218.958 115.056 219.484 115.708 219.774 116.252C220.136 116.887 220.336 117.594 220.517 119.48H212.45L212.559 119.878C212.632 120.114 212.777 120.495 212.903 120.749C213.03 121.002 213.357 121.419 213.647 121.673C213.937 121.927 214.589 122.217 215.079 122.344C215.586 122.453 216.148 122.507 216.348 122.471C216.547 122.435 216.928 122.362 217.218 122.308C217.49 122.253 217.979 121.963 218.885 121.129L219.973 122.199L219.429 122.743C219.121 123.051 218.487 123.468 217.979 123.668C217.236 123.994 216.801 124.048 215.622 123.976C214.48 123.921 213.991 123.813 213.357 123.45C212.903 123.178 212.269 122.652 211.943 122.272C211.616 121.891 211.218 121.148 211.073 120.658C210.855 120.023 210.801 119.371 210.855 118.482C210.909 117.721 211.091 116.923 211.308 116.488C211.508 116.089 211.961 115.491 212.287 115.146C212.632 114.802 213.23 114.385 213.629 114.204C214.1 113.986 214.789 113.859 215.586 113.859V113.859ZM213.32 116.216C213.157 116.47 212.885 116.959 212.74 117.304C212.577 117.648 212.523 118.011 212.595 118.083C212.668 118.156 214.082 118.21 215.768 118.21C217.653 118.21 218.795 118.138 218.795 118.029C218.795 117.938 218.686 117.576 218.541 117.268C218.414 116.941 218.07 116.452 217.78 116.18C217.49 115.908 217.036 115.6 216.764 115.509C216.474 115.4 215.949 115.31 215.586 115.31C215.206 115.328 214.607 115.418 214.263 115.545C213.919 115.672 213.502 115.98 213.32 116.216V116.216Z" fill="#2B3D52"/>
<path d="M203.133 120.35C202.245 118.32 201.266 116.035 200.94 115.256L200.341 113.842L202.136 113.95L203.804 117.794C204.728 119.915 205.526 121.583 205.598 121.511C205.653 121.438 206.45 119.716 208.952 113.95L209.786 113.896C210.529 113.86 210.619 113.896 210.547 114.168C210.492 114.349 209.532 116.615 206.341 123.922L204.746 124.031L203.133 120.35Z" fill="#2B3D52"/>
<path fill-rule="evenodd" clip-rule="evenodd" d="M195.048 113.859C195.7 113.859 196.534 113.95 196.915 114.04C197.277 114.149 197.93 114.494 198.347 114.82C198.818 115.183 199.344 115.835 199.67 116.488C200.141 117.395 200.214 117.739 200.214 118.917C200.196 119.897 200.087 120.531 199.833 121.111C199.634 121.565 199.181 122.217 198.836 122.562C198.492 122.906 197.894 123.359 197.495 123.559C197.078 123.74 196.262 123.94 195.591 123.976C194.939 124.012 194.069 123.958 193.634 123.849C193.217 123.74 192.528 123.378 192.129 123.069C191.712 122.743 191.114 122.018 190.824 121.474C190.443 120.785 190.244 120.15 190.19 119.389C190.135 118.7 190.208 117.938 190.389 117.304C190.552 116.76 190.951 115.98 191.295 115.582C191.622 115.183 192.347 114.639 192.89 114.349C193.67 113.968 194.123 113.859 195.048 113.859ZM193.452 115.817C193.235 115.944 192.854 116.307 192.6 116.633C192.365 116.941 192.093 117.576 192.002 118.029C191.893 118.519 191.893 119.208 192.002 119.751C192.093 120.259 192.365 120.93 192.6 121.256C192.854 121.565 193.326 121.963 193.652 122.127C193.96 122.308 194.649 122.435 195.138 122.435C195.682 122.453 196.335 122.308 196.752 122.09C197.15 121.909 197.676 121.419 197.93 121.039C198.274 120.513 198.419 120.005 198.474 119.226C198.528 118.374 198.437 117.92 198.147 117.268C197.912 116.706 197.513 116.234 197.096 115.944C196.715 115.708 196.045 115.455 195.591 115.418C195.138 115.364 194.576 115.382 194.323 115.473C194.069 115.545 193.688 115.708 193.471 115.817H193.452Z" fill="#2B3D52"/>
<path d="M171.846 124.012V118.936V113.859H172.661C173.477 113.859 173.477 113.859 173.477 115.128L174.311 114.53C175.018 114.022 175.326 113.95 176.432 113.895C177.302 113.841 177.991 113.914 178.462 114.095C178.861 114.258 179.405 114.621 180.184 115.491L180.891 114.893C181.272 114.584 181.906 114.204 182.287 114.095C182.668 113.968 183.465 113.859 184.027 113.859C184.607 113.859 185.387 113.986 185.749 114.149C186.13 114.294 186.601 114.566 186.782 114.729C186.964 114.893 187.308 115.436 187.544 115.944C187.943 116.796 187.979 117.05 187.979 124.012H186.347V121.021C186.347 119.371 186.257 117.685 186.166 117.25C186.057 116.833 185.804 116.307 185.568 116.071C185.35 115.853 184.843 115.6 184.444 115.491C183.991 115.4 183.447 115.4 182.994 115.491C182.595 115.6 182.069 115.853 181.852 116.071C181.616 116.307 181.29 116.742 181.127 117.032C180.891 117.467 180.819 118.229 180.728 124.012H179.097V120.694C179.097 117.92 179.042 117.304 178.77 116.778C178.607 116.434 178.245 115.98 177.973 115.781C177.592 115.509 177.229 115.418 176.432 115.436C175.725 115.473 175.235 115.582 174.927 115.817C174.674 115.999 174.293 116.434 174.057 116.778C173.677 117.358 173.64 117.558 173.658 124.012H171.846Z" fill="#2B3D52"/>
<path d="M166.951 124.012V118.936V113.859H168.764V124.012H166.951Z" fill="#2B3D52"/>
<path fill-rule="evenodd" clip-rule="evenodd" d="M155.078 113.859C155.676 113.859 156.492 113.95 156.891 114.059C157.38 114.185 157.924 114.584 158.576 115.237C159.265 115.962 159.592 116.47 159.791 117.177C159.936 117.685 160.063 118.428 160.063 119.48H156.075C153.537 119.48 152.087 119.552 152.087 119.661C152.087 119.751 152.178 120.06 152.286 120.35C152.377 120.622 152.685 121.075 152.957 121.347C153.229 121.637 153.7 122 153.99 122.145C154.299 122.308 155.005 122.435 155.622 122.435C156.22 122.435 156.909 122.326 157.163 122.199C157.416 122.072 157.815 121.782 158.522 121.093L159.501 122.29L159.012 122.797C158.74 123.069 158.105 123.468 157.616 123.668C156.873 123.994 156.456 124.048 155.259 123.976C154.262 123.921 153.573 123.776 153.084 123.523C152.685 123.305 152.105 122.87 151.797 122.525C151.471 122.199 151.072 121.637 150.891 121.293C150.691 120.894 150.546 120.096 150.492 119.208C150.437 118.12 150.492 117.558 150.746 116.941C150.909 116.488 151.271 115.835 151.543 115.491C151.815 115.146 152.468 114.639 153.011 114.349C153.755 113.968 154.244 113.859 155.078 113.859V113.859ZM153.211 116.089C152.975 116.307 152.613 116.796 152.431 117.177C152.25 117.54 152.087 117.938 152.087 118.029C152.087 118.138 153.265 118.21 155.259 118.21H158.431C158.25 117.576 158.105 117.195 157.978 116.941C157.851 116.687 157.543 116.307 157.308 116.089C157.09 115.872 156.673 115.618 156.383 115.509C156.111 115.4 155.586 115.31 155.205 115.328C154.842 115.328 154.335 115.418 154.081 115.509C153.827 115.618 153.428 115.872 153.211 116.089Z" fill="#2B3D52"/>
<path fill-rule="evenodd" clip-rule="evenodd" d="M127.343 113.914C128.539 113.95 128.956 114.059 129.663 114.458C130.134 114.73 130.769 115.292 131.077 115.727C131.367 116.144 131.748 116.942 131.911 117.486C132.104 118.15 132.165 118.815 132.092 119.48C132.02 120.024 131.784 120.894 131.53 121.384C131.294 121.891 130.787 122.562 130.406 122.888C130.007 123.197 129.337 123.596 128.884 123.741C128.43 123.886 127.615 124.013 127.071 124.013C126.527 124.013 125.711 123.886 125.258 123.722C124.805 123.577 124.134 123.179 123.736 122.87C123.355 122.544 122.829 121.837 122.557 121.293C122.177 120.459 122.086 120.042 122.086 118.845C122.104 117.576 122.158 117.268 122.63 116.416C122.938 115.872 123.464 115.201 123.808 114.929C124.152 114.639 124.769 114.277 125.168 114.132C125.639 113.968 126.4 113.878 127.343 113.914V113.914ZM124.823 116.18C124.642 116.343 124.334 116.797 124.152 117.177C123.935 117.613 123.808 118.229 123.808 118.9C123.808 119.498 123.953 120.241 124.134 120.658C124.316 121.057 124.696 121.565 125.004 121.764C125.294 121.982 125.856 122.254 126.255 122.345C126.708 122.471 127.27 122.49 127.796 122.381C128.249 122.29 128.811 122.073 129.065 121.873C129.319 121.692 129.699 121.184 129.935 120.731C130.207 120.169 130.334 119.625 130.334 118.9C130.334 118.229 130.207 117.594 129.989 117.177C129.808 116.797 129.5 116.343 129.319 116.18C129.119 116.017 128.666 115.745 128.304 115.6C127.923 115.437 127.397 115.31 127.125 115.31C126.835 115.328 126.291 115.437 125.893 115.6C125.494 115.745 125.023 115.999 124.823 116.18V116.18Z" fill="#2B3D52"/>
<path fill-rule="evenodd" clip-rule="evenodd" d="M116.032 113.914C117.355 113.95 117.681 114.023 118.298 114.422C118.714 114.694 119.168 115.219 119.403 115.691C119.784 116.434 119.82 116.724 119.82 124.013H119.005C118.261 124.013 118.189 123.976 118.189 123.559C118.189 123.306 118.171 123.106 118.134 123.106C118.116 123.106 117.681 123.306 117.192 123.559C116.485 123.922 116.014 124.013 115.107 124.013C114.382 124.013 113.657 123.886 113.204 123.686C112.805 123.505 112.279 123.07 112.026 122.725C111.736 122.327 111.572 121.801 111.518 121.202C111.482 120.55 111.554 120.115 111.808 119.661C112.007 119.299 112.497 118.827 112.95 118.574C113.639 118.193 114.056 118.12 118.225 117.939L118.116 117.214C118.044 116.742 117.826 116.325 117.464 115.999C117.156 115.709 116.612 115.437 116.231 115.383C115.869 115.31 115.143 115.346 114.654 115.473C114.146 115.582 113.44 115.872 112.388 116.579L112.026 115.945C111.826 115.6 111.663 115.274 111.663 115.219C111.663 115.165 111.971 114.947 112.334 114.73C112.714 114.512 113.349 114.222 113.748 114.095C114.165 113.968 115.143 113.878 116.032 113.914ZM113.476 120.169C113.186 120.532 113.113 120.804 113.186 121.202C113.258 121.511 113.476 121.91 113.675 122.109C113.929 122.363 114.346 122.49 115.071 122.544C115.814 122.598 116.304 122.508 116.811 122.272C117.21 122.073 117.681 121.692 117.863 121.384C118.044 121.094 118.189 120.532 118.189 120.169V119.48C115.452 119.516 114.473 119.571 114.255 119.607C114.038 119.643 113.675 119.897 113.476 120.169V120.169Z" fill="#2B3D52"/>
<path fill-rule="evenodd" clip-rule="evenodd" d="M94.8055 113.859C95.73 113.859 96.4007 113.968 96.8901 114.204C97.2889 114.367 97.8327 114.784 98.1228 115.092C98.3947 115.418 98.6847 115.98 98.7935 116.343C98.8841 116.724 98.9747 118.609 98.9747 124.012H98.159C97.3614 124.012 97.3433 123.994 97.3433 123.432C97.3614 122.87 97.3433 122.852 97.0352 123.142C96.8539 123.305 96.4007 123.577 96.0382 123.722C95.6575 123.885 94.8418 124.012 94.2073 124.012C93.3916 124.012 92.8478 123.903 92.2677 123.613C91.8146 123.378 91.2707 122.906 91.0351 122.562C90.7451 122.108 90.6182 121.655 90.6182 121.021C90.6182 120.386 90.7451 119.933 91.0351 119.48C91.2707 119.135 91.7783 118.682 92.1771 118.482C92.739 118.21 93.3735 118.12 97.162 118.029V117.304C97.162 116.76 97.0351 116.452 96.6545 116.053C96.3644 115.745 95.875 115.473 95.44 115.4C95.023 115.328 94.3342 115.346 93.8085 115.455C93.301 115.582 92.594 115.872 91.5426 116.579L91.1801 115.999C90.9807 115.672 90.8176 115.364 90.8176 115.31C90.7994 115.255 90.9082 115.128 91.0351 115.001C91.162 114.874 91.7602 114.566 92.3584 114.331C93.1922 113.968 93.7723 113.859 94.8055 113.859V113.859ZM92.3946 120.259C92.3221 120.422 92.2677 120.767 92.2677 121.021C92.2677 121.274 92.3221 121.601 92.3946 121.764C92.4853 121.927 92.7572 122.181 93.0291 122.308C93.3191 122.453 93.9354 122.562 94.443 122.562C94.9505 122.562 95.6031 122.435 95.8931 122.29C96.1832 122.145 96.6001 121.8 96.7995 121.528C97.0533 121.202 97.1802 120.749 97.162 120.259V119.48C94.3886 119.498 93.3916 119.588 93.0834 119.733C92.7934 119.86 92.4853 120.096 92.3946 120.259Z" fill="#2B3D52"/>
<path d="M81.2101 115.4V114.639V113.859H89.186V114.403C89.186 114.82 88.5697 115.745 86.3763 118.573C84.8355 120.567 83.5666 122.235 83.5666 122.29C83.5666 122.344 84.8355 122.38 89.186 122.38V124.012H81.0288V123.432C81.0288 122.942 81.5182 122.235 83.5847 119.57C84.9986 117.775 86.3219 116.071 86.9201 115.255L81.2101 115.4Z" fill="#2B3D52"/>
<path d="M77.2222 124.012V118.936V113.859H79.0349V124.012H77.2222Z" fill="#2B3D52"/>
<path d="M70.1519 124.012V118.936V113.859H71.7833L71.7652 115.219L72.1821 114.82C72.4177 114.602 72.9072 114.294 73.2697 114.149C73.6504 113.986 74.2848 113.859 75.4087 113.859V115.4L74.4661 115.527C73.9404 115.582 73.306 115.799 73.0522 115.999C72.7984 116.18 72.4359 116.615 72.2365 116.959C71.9102 117.503 71.8739 117.957 71.7833 124.012H70.1519Z" fill="#2B3D52"/>
<path fill-rule="evenodd" clip-rule="evenodd" d="M62.9022 113.859C63.8267 113.859 64.4974 113.968 64.9868 114.204C65.3856 114.367 65.9294 114.784 66.2195 115.092C66.4914 115.418 66.7814 115.98 66.8902 116.343C66.9808 116.724 67.0714 118.609 67.0714 124.012H66.2557C65.4581 124.012 65.44 123.994 65.44 123.432C65.4581 122.87 65.44 122.852 65.1318 123.142C64.9506 123.305 64.4974 123.577 64.1348 123.722C63.7542 123.885 62.9385 124.012 62.304 124.012C61.4883 124.012 60.9445 123.903 60.3644 123.613C59.9112 123.378 59.3674 122.906 59.1318 122.562C58.8417 122.108 58.7148 121.655 58.7148 121.021C58.7148 120.386 58.8417 119.933 59.1318 119.48C59.3674 119.135 59.875 118.682 60.2738 118.482C60.8357 118.21 61.4702 118.12 65.2587 118.029V117.304C65.2587 116.76 65.1318 116.452 64.7512 116.053C64.4611 115.745 63.9717 115.473 63.5366 115.4C63.1197 115.328 62.4309 115.346 61.9052 115.455C61.3977 115.582 60.6907 115.872 59.6393 116.579L59.2768 115.999C59.0774 115.672 58.9142 115.364 58.9142 115.31C58.8961 115.255 59.0049 115.128 59.1318 115.001C59.2587 114.874 59.8568 114.566 60.455 114.331C61.2889 113.968 61.869 113.859 62.9022 113.859V113.859ZM60.4913 120.259C60.4188 120.422 60.3644 120.767 60.3644 121.021C60.3644 121.274 60.4188 121.601 60.4913 121.764C60.5819 121.927 60.8538 122.181 61.1257 122.308C61.4158 122.453 62.0321 122.562 62.5397 122.562C63.0472 122.562 63.6998 122.435 63.9898 122.29C64.2799 122.145 64.6968 121.8 64.8962 121.528C65.15 121.202 65.2768 120.749 65.2587 120.259V119.48C62.4853 119.498 61.4883 119.588 61.1801 119.733C60.8901 119.86 60.5819 120.096 60.4913 120.259Z" fill="#2B3D52"/>
<path d="M42.6529 121.746C42.3991 121.148 42.3266 120.368 42.2722 117.449L42.1997 113.859H44.0487L44.1393 121.148L44.8281 121.764C45.4445 122.326 45.5895 122.38 46.6408 122.38C47.4384 122.38 47.9279 122.272 48.3629 122.018C48.6711 121.818 49.088 121.383 49.2693 121.075C49.523 120.567 49.5774 119.969 49.5956 113.859H51.4808V124.012H50.5744C49.6862 124.012 49.6681 123.994 49.6681 122.924L48.6711 123.468C47.8372 123.921 47.4747 124.012 46.4596 124.012C45.6439 124.012 44.9732 123.885 44.5018 123.668C44.1031 123.486 43.5955 123.142 43.378 122.906C43.1604 122.67 42.8342 122.145 42.6529 121.746Z" fill="#2B3D52"/>
<path fill-rule="evenodd" clip-rule="evenodd" d="M34.1876 113.895C35.4746 113.95 35.7647 114.022 37.523 115.128V114.494C37.523 113.859 37.523 113.859 39.1363 113.859L39.1 119.244C39.0638 124.357 39.0457 124.683 38.6831 125.372C38.4656 125.771 38.0487 126.315 37.7224 126.587C37.4142 126.877 36.6891 127.221 36.1272 127.384C35.3659 127.602 34.6952 127.656 33.7163 127.584C32.9731 127.529 31.9942 127.348 31.541 127.185C31.0879 127.022 30.4534 126.695 30.1453 126.442C29.674 126.097 29.5833 125.934 29.7102 125.68C29.8008 125.517 30.0002 125.209 30.1453 125.009C30.399 124.647 30.399 124.647 30.9247 125.046C31.2148 125.263 31.813 125.571 32.2661 125.716C32.7193 125.88 33.6075 126.006 34.2601 126.006C35.0033 126.006 35.674 125.898 36.0728 125.68C36.4897 125.481 36.8523 125.082 37.1242 124.556C37.3598 124.085 37.523 123.414 37.523 122.199L36.9792 122.652C36.6891 122.906 35.9641 123.233 35.4021 123.414C34.5139 123.65 34.1695 123.668 33.1725 123.504C32.5199 123.378 31.6498 123.087 31.2329 122.834C30.7978 122.58 30.2178 122 29.9096 121.51C29.6015 121.039 29.2752 120.332 29.1664 119.933C29.0576 119.534 29.0214 118.736 29.0758 118.156C29.1301 117.594 29.3477 116.814 29.5289 116.434C29.7283 116.071 30.1453 115.509 30.4897 115.183C30.816 114.874 31.4504 114.439 31.9036 114.222C32.5562 113.932 33.0093 113.859 34.1876 113.895V113.895ZM31.7586 116.27C31.5229 116.488 31.2148 116.887 31.0697 117.159C30.9247 117.449 30.816 118.138 30.816 118.7C30.816 119.48 30.9429 119.951 31.2691 120.513C31.5773 121.039 31.9761 121.401 32.5018 121.655C32.9187 121.855 33.5894 122.018 33.9882 122.018C34.387 122.018 35.0033 121.927 35.3477 121.836C35.6921 121.728 36.1816 121.474 36.3991 121.238C36.6348 121.021 36.9973 120.531 37.1786 120.15C37.3598 119.788 37.523 119.135 37.523 118.7C37.523 118.283 37.3598 117.594 37.1604 117.159C36.9429 116.724 36.5079 116.198 36.1272 115.944C35.7103 115.672 35.0577 115.455 34.532 115.4C33.9519 115.346 33.3719 115.4 32.9006 115.582C32.5018 115.727 31.9761 116.035 31.7586 116.27V116.27Z" fill="#2B3D52"/>
<path fill-rule="evenodd" clip-rule="evenodd" d="M22.8943 113.859C23.565 113.859 24.3808 113.968 24.707 114.095C25.0152 114.222 25.5771 114.548 25.9216 114.802C26.266 115.056 26.7917 115.708 27.0817 116.252C27.4261 116.887 27.6436 117.594 27.8249 119.48L19.7946 119.57L20.0484 120.295C20.1753 120.694 20.5559 121.274 20.8822 121.583C21.2629 121.927 21.8248 122.217 22.3868 122.344C22.8762 122.453 23.4563 122.507 23.6557 122.471C23.8551 122.435 24.2357 122.362 24.5258 122.308C24.7977 122.253 25.2871 121.963 26.1935 121.129L27.2811 122.199L26.7373 122.743C26.4291 123.051 25.7765 123.468 25.2871 123.668C24.5439 123.994 24.1089 124.048 22.9306 123.976C21.7886 123.921 21.2992 123.813 20.6647 123.45C20.2115 123.178 19.5771 122.652 19.2508 122.272C18.9245 121.891 18.5257 121.148 18.3807 120.658C18.1632 120.023 18.1088 119.371 18.1632 118.482C18.2176 117.721 18.3988 116.923 18.6163 116.488C18.8157 116.089 19.2689 115.491 19.5952 115.146C19.9396 114.802 20.5378 114.385 20.9366 114.204C21.4079 113.986 22.0967 113.859 22.8943 113.859V113.859ZM21.0454 116.017C20.701 116.27 20.2659 116.814 20.1028 117.213C19.9215 117.612 19.8127 117.993 19.8671 118.083C19.9034 118.156 21.3354 118.21 23.0212 118.21C24.9608 118.21 26.1028 118.138 26.1028 118.029C26.1028 117.938 25.9941 117.576 25.8491 117.268C25.7222 116.941 25.3777 116.452 25.0877 116.18C24.7977 115.908 24.3445 115.6 24.0545 115.509C23.7826 115.4 23.2931 115.328 22.9668 115.328C22.6587 115.346 22.2236 115.4 22.0242 115.436C21.8248 115.491 21.3898 115.745 21.0454 116.017V116.017Z" fill="#2B3D52"/>
<path d="M11.9639 124.012V118.936V113.859H12.7796C13.5953 113.859 13.5953 113.859 13.5953 115.128L14.4292 114.548C15.0817 114.077 15.4805 113.932 17.2207 113.859V115.491H16.55C16.1693 115.491 15.5712 115.636 15.2267 115.817C14.8642 115.98 14.4292 116.434 14.1935 116.851C13.8128 117.521 13.7766 117.793 13.7766 124.012H11.9639Z" fill="#2B3D52"/>
<path d="M193.508 112.754L194.958 111.412L196.408 110.071L197.586 110.052C198.583 110.052 198.71 110.089 198.493 110.306C198.348 110.433 197.568 111.05 196.771 111.666C195.429 112.7 195.248 112.79 193.508 112.754Z" fill="#2B3D52"/>
<path d="M113.059 111.194C113.258 110.795 113.602 110.433 113.929 110.306C114.219 110.179 114.672 110.125 114.926 110.179C115.18 110.233 115.687 110.505 116.05 110.795C116.43 111.085 116.902 111.321 117.101 111.321C117.343 111.321 117.524 111.14 117.645 110.777C117.79 110.342 117.935 110.233 118.37 110.233C118.787 110.233 118.914 110.306 118.914 110.596C118.914 110.795 118.787 111.249 118.642 111.593C118.497 111.938 118.207 112.318 118.007 112.409C117.808 112.5 117.373 112.59 117.065 112.59C116.684 112.59 116.213 112.409 115.741 112.046C115.343 111.756 114.835 111.502 114.618 111.502C114.309 111.502 114.164 111.648 114.074 112.046C113.947 112.518 113.838 112.59 113.349 112.59C112.877 112.59 112.75 112.518 112.75 112.228C112.75 112.028 112.896 111.557 113.059 111.194Z" fill="#2B3D52"/>
<path d="M222.602 124.013V116.942V109.871H224.415V124.013H222.602Z" fill="#2B3D52"/>
<path d="M166.752 110.977C166.734 110.596 166.843 110.36 167.151 110.143C167.386 109.998 167.749 109.871 167.948 109.871C168.148 109.871 168.456 110.016 168.637 110.197C168.818 110.378 168.963 110.759 168.945 111.086C168.945 111.503 168.818 111.775 168.528 111.956C168.311 112.101 167.985 112.228 167.803 112.228C167.64 112.228 167.332 112.065 167.133 111.865C166.933 111.666 166.752 111.267 166.752 110.977Z" fill="#2B3D52"/>
<path fill-rule="evenodd" clip-rule="evenodd" d="M146.468 109.871H148.099V124.013L147.32 123.958C146.595 123.922 146.558 123.886 146.468 122.743L145.525 123.342C144.746 123.831 144.383 123.94 143.314 123.994C142.262 124.049 141.845 123.976 141.048 123.632C140.432 123.36 139.797 122.888 139.362 122.381C138.981 121.928 138.546 121.202 138.401 120.749C138.238 120.296 138.129 119.462 138.129 118.882C138.129 118.32 138.293 117.431 138.474 116.905C138.709 116.289 139.126 115.673 139.616 115.201C140.051 114.802 140.758 114.331 141.211 114.15C141.791 113.914 142.389 113.841 143.314 113.896C144.383 113.932 144.746 114.041 146.468 115.129V109.871ZM140.74 116.434C140.377 116.815 140.105 117.377 139.978 117.975C139.815 118.718 139.815 119.154 139.978 119.879C140.087 120.405 140.395 121.075 140.649 121.365C140.903 121.656 141.374 122 141.664 122.163C141.954 122.308 142.625 122.435 143.114 122.435C143.64 122.435 144.329 122.29 144.728 122.091C145.126 121.891 145.652 121.42 145.906 121.039C146.25 120.513 146.395 120.006 146.45 119.226C146.504 118.338 146.432 117.957 146.087 117.232C145.833 116.688 145.398 116.162 145.018 115.908C144.673 115.691 144.021 115.455 143.568 115.401C143.06 115.346 142.48 115.419 142.027 115.564C141.628 115.727 141.048 116.108 140.74 116.434V116.434Z" fill="#2B3D52"/>
<path d="M77.0044 111.049C77.0225 110.759 77.1675 110.36 77.3307 110.197C77.4938 110.016 77.802 109.871 78.0195 109.871C78.237 109.871 78.5815 109.998 78.799 110.143C79.0709 110.306 79.2159 110.596 79.2159 110.922C79.2159 111.194 79.1253 111.557 78.9984 111.72C78.8715 111.883 78.5633 112.083 78.3095 112.137C78.0074 112.21 77.7114 112.137 77.4213 111.92C77.1434 111.702 77.0044 111.412 77.0044 111.049Z" fill="#2B3D52"/>
<path d="M54.5625 124.013V116.942V109.871H56.1939V124.013H54.5625Z" fill="#2B3D52"/>
<path d="M44.5928 100.896C44.6049 100.461 44.7559 100.098 45.046 99.8082C45.3722 99.4638 45.6804 99.355 46.2242 99.355C46.8224 99.355 47.0218 99.4456 47.4206 99.9352C47.8013 100.425 47.8738 100.66 47.7831 101.168C47.7288 101.512 47.475 101.984 47.2212 102.201C46.9674 102.437 46.5324 102.618 46.2242 102.618C45.8617 102.618 45.4991 102.437 45.1366 102.075C44.7378 101.676 44.5928 101.367 44.5928 100.896Z" fill="#2B3D52"/>
<path fill-rule="evenodd" clip-rule="evenodd" d="M222.474 81.4053L227.224 81.3872L227.659 82.3481C227.894 82.8739 229.961 87.5153 232.245 92.6461C234.547 97.777 236.45 102.092 236.487 102.219C236.541 102.382 235.979 102.418 231.447 102.346L229.58 97.8858L220.063 97.9039L219.737 98.5929C219.538 98.9555 219.121 99.9708 218.16 102.437H215.677C213.755 102.437 213.193 102.382 213.248 102.219C213.284 102.092 215.369 97.36 217.888 91.7034L222.474 81.4053ZM223.272 90.1079C222.638 91.649 221.967 93.2082 221.804 93.5889L221.514 94.2779C226.571 94.2779 228.039 94.2235 228.039 94.1872C228.039 94.1328 227.351 92.3923 226.48 90.3255C225.628 88.2586 224.922 86.5362 224.885 86.5C224.867 86.4456 224.758 86.6087 224.65 86.8626C224.541 87.0983 223.925 88.5487 223.272 90.1079V90.1079Z" fill="#2B3D52"/>
<path fill-rule="evenodd" clip-rule="evenodd" d="M193.997 81.3687L199.544 81.4593C204.076 81.5137 205.308 81.6043 206.197 81.8582C206.795 82.0213 207.756 82.4202 208.354 82.7284C208.934 83.0548 209.768 83.6893 210.203 84.1607C210.638 84.6502 211.218 85.5024 211.49 86.0644C211.943 87.0072 211.997 87.3154 211.997 89.1103C211.997 90.8689 211.943 91.2316 211.526 92.1018C211.272 92.6457 210.747 93.4616 210.33 93.9148C209.931 94.3681 209.224 94.9301 208.753 95.184C208.299 95.4378 207.919 95.6735 207.919 95.7279C207.901 95.7823 208.861 97.1964 210.04 98.9007C211.218 100.605 212.251 102.092 212.324 102.2C212.414 102.382 211.889 102.436 207.284 102.454L203.296 96.725L198.855 96.6344V102.436H193.961L193.997 81.3687ZM198.855 92.6457C202.861 92.6457 204.348 92.5551 204.747 92.4463C205.145 92.3375 205.762 91.9386 206.124 91.576C206.523 91.1772 206.886 90.597 207.012 90.1075C207.194 89.491 207.194 89.0559 207.049 88.2944C206.886 87.5148 206.686 87.1522 206.16 86.6446C205.78 86.282 205.145 85.9012 204.747 85.7743C204.348 85.6655 202.861 85.5749 201.447 85.5749H198.855V92.6457Z" fill="#2B3D52"/>
<path d="M170.468 95.91C170.287 95.0398 170.214 92.9729 170.214 88.0777V81.4058H175.109L175.163 88.2409C175.199 94.2058 175.254 95.1848 175.526 95.8556C175.689 96.2908 175.997 96.8528 176.196 97.1248C176.396 97.4149 176.903 97.8318 177.32 98.0857C177.991 98.4845 178.317 98.5389 179.749 98.5389C181.272 98.5389 181.453 98.5027 182.287 97.995C182.958 97.5599 183.302 97.1792 184.263 95.2936L184.317 81.4058H189.248V87.7876C189.23 92.574 189.175 94.5503 188.976 95.6381C188.831 96.4358 188.468 97.578 188.196 98.1763C187.906 98.7746 187.272 99.6811 186.783 100.189C186.293 100.696 185.387 101.367 184.752 101.675C184.136 102.002 183.121 102.383 182.505 102.528C181.87 102.673 180.674 102.8 179.822 102.8C178.97 102.8 177.719 102.673 177.012 102.528C176.305 102.383 175.29 102.038 174.746 101.766C174.202 101.494 173.296 100.823 172.734 100.279C172.154 99.6811 171.52 98.8109 171.229 98.1763C170.939 97.578 170.595 96.5627 170.468 95.91Z" fill="#2B3D52"/>
<path d="M149.912 85.5757V83.4908V81.4058H168.22V85.5757H161.513V102.437H156.619V85.5757H149.912Z" fill="#2B3D52"/>
<path d="M142.48 102.437V91.9214V81.4058H147.374V102.437H142.48Z" fill="#2B3D52"/>
<path fill-rule="evenodd" clip-rule="evenodd" d="M120.545 81.4058H125.167C127.705 81.4058 130.424 81.4964 131.204 81.5871C131.965 81.6958 133.089 81.9497 133.687 82.1672C134.285 82.3667 135.21 82.8381 135.754 83.2007C136.297 83.5633 137.004 84.216 137.331 84.6692C137.657 85.1225 138.092 85.9565 138.309 86.5366C138.545 87.2256 138.672 88.0233 138.672 88.9661C138.672 89.7457 138.545 90.8154 138.382 91.3774C138.219 91.9214 137.893 92.6647 137.675 93.0092C137.457 93.3537 136.896 93.9882 136.424 94.4052C135.971 94.8403 135.337 95.3117 135.047 95.4568C134.702 95.6381 134.557 95.8194 134.63 95.9463C134.702 96.0732 135.59 97.3605 136.587 98.8109C137.603 100.261 138.563 101.657 139.035 102.437H133.868L129.88 96.6352H125.439V102.437H120.545V81.4058ZM125.439 92.6466C131.222 92.5559 131.367 92.5378 132.201 92.0483C132.835 91.6857 133.143 91.3412 133.451 90.6885C133.741 90.0358 133.814 89.6188 133.741 88.8392C133.705 88.2953 133.488 87.5519 133.288 87.2075C133.071 86.863 132.545 86.3735 132.11 86.1197C131.385 85.7027 131.131 85.6664 128.394 85.612L125.475 85.5395L125.439 92.6466Z" fill="#2B3D52"/>
<path d="M59.6382 102.437V91.9214V81.4058H75.4087V85.3944H64.5325V89.927H74.1398V93.7344H64.5325V98.4483H75.7713V102.437H59.6382Z" fill="#2B3D52"/>
<path fill-rule="evenodd" clip-rule="evenodd" d="M24.8702 81.3706L29.7827 81.4794C33.3718 81.57 35.0033 81.6788 35.8009 81.8783C36.3991 82.0414 37.2148 82.3315 37.6136 82.5491C38.0124 82.7485 38.7375 83.2924 39.2088 83.7457C39.6982 84.1989 40.3145 85.0329 40.5683 85.5768C41.0215 86.4834 41.0577 86.7734 41.0577 88.659C41.0577 90.6533 41.0215 90.8165 40.4777 91.9769C40.0426 92.8471 39.6257 93.391 39.0094 93.8624C38.5381 94.2431 37.7948 94.7145 37.3779 94.914C36.961 95.1134 36.5985 95.3128 36.5985 95.3672C36.5985 95.4216 37.6498 96.9264 38.9369 98.7213C40.2057 100.516 41.3115 102.094 41.384 102.202C41.4746 102.384 41.2209 102.438 39.0637 102.438L34.3688 95.8205L27.0999 95.9111L27.0092 102.438H24.834L24.8702 81.3706ZM26.9911 88.7678L27.0092 93.9168C34.4051 93.7899 34.8039 93.7536 35.8009 93.3729C36.4897 93.1009 37.1785 92.6477 37.668 92.1582C38.2118 91.5961 38.5199 91.0885 38.7193 90.327C38.9187 89.6562 38.9912 88.8947 38.9369 88.2057C38.8825 87.5712 38.6649 86.7372 38.4112 86.2114C38.1393 85.6494 37.6861 85.1055 37.1604 84.7247C36.7072 84.4165 35.9459 84.0176 35.4383 83.8363C34.7495 83.6006 33.6619 83.51 30.9066 83.4556C28.9126 83.4012 27.2086 83.4193 27.118 83.51C27.0274 83.5825 26.973 85.8488 26.9911 88.7678Z" fill="#2B3D52"/>
<path fill-rule="evenodd" clip-rule="evenodd" d="M0.217407 81.3706L5.32924 81.4613C8.12081 81.5338 10.8399 81.6607 11.3293 81.7513C11.8369 81.842 12.5982 82.0596 13.0514 82.2227C13.5046 82.3859 14.3565 82.7848 14.9366 83.093C15.5348 83.4193 16.4774 84.1264 17.0212 84.6885C17.6375 85.2868 18.3082 86.2295 18.7252 87.0454C19.0877 87.7887 19.5227 88.9491 19.6678 89.6562C19.8128 90.3633 19.9397 91.4148 19.9397 92.0131C19.9397 92.6114 19.8128 93.663 19.6678 94.3701C19.5227 95.0771 19.1421 96.165 18.8158 96.8177C18.4533 97.5973 17.8007 98.4313 16.9668 99.2834C16.0242 100.226 15.3173 100.734 14.3203 101.223C13.5771 101.568 12.3626 101.985 11.6556 102.148C10.6224 102.384 9.24469 102.438 0.181152 102.438L0.217407 81.3706ZM2.32015 92.0494L2.3564 100.444C9.0453 100.444 10.3686 100.371 11.2387 100.172C11.8731 100.009 12.8882 99.6279 13.4683 99.3015C14.0665 98.9933 14.9366 98.3043 15.426 97.7786C15.9155 97.2528 16.568 96.2737 16.8943 95.6029C17.42 94.5151 17.4925 94.1525 17.5469 92.4664C17.6194 90.9253 17.565 90.327 17.2569 89.2936C17.0212 88.514 16.568 87.6074 16.0786 86.9366C15.5892 86.2658 14.8641 85.5587 14.1209 85.0692C13.4864 84.6341 12.4169 84.1264 11.7825 83.927C10.7855 83.6006 9.9879 83.5281 6.59814 83.4737C4.40476 83.4375 2.53767 83.4556 2.44704 83.5281C2.3564 83.6006 2.30202 87.4261 2.32015 92.0494V92.0494Z" fill="#2B3D52"/>
<path d="M102.872 82.5478C103.47 82.2215 104.575 81.8045 105.319 81.6051C106.261 81.3512 107.276 81.2425 108.672 81.2425C109.832 81.2243 111.137 81.3512 111.79 81.4963C112.425 81.6413 113.476 82.0402 114.147 82.3847C114.835 82.711 115.814 83.3637 116.322 83.8351C116.848 84.2884 117.283 84.7235 117.283 84.796C117.283 84.8867 116.594 85.5756 114.201 87.7512L113.512 87.1167C113.15 86.7541 112.388 86.2464 111.844 85.9745C110.938 85.5393 110.648 85.485 108.853 85.485C106.914 85.485 106.823 85.5031 105.699 86.1195C105.065 86.464 104.213 87.1167 103.832 87.5699C103.452 88.0232 102.962 88.8391 102.745 89.383C102.473 90.1082 102.364 90.7971 102.364 91.9212C102.364 92.9184 102.473 93.7705 102.69 94.3688C102.853 94.8583 103.27 95.6379 103.597 96.0912C103.923 96.5445 104.575 97.1609 105.065 97.4872C105.554 97.7955 106.443 98.1943 107.041 98.3575C107.784 98.5751 108.527 98.6476 109.397 98.5932C110.213 98.5388 111.029 98.3575 111.663 98.0674C112.207 97.8136 113.005 97.3059 113.421 96.9433C114.092 96.3632 114.237 96.3088 114.545 96.4901C114.727 96.617 115.434 97.2515 117.319 99.0827L116.956 99.536C116.775 99.7898 116.05 100.37 115.361 100.841C114.618 101.349 113.494 101.893 112.57 102.201C111.174 102.654 110.793 102.709 108.582 102.691C106.388 102.691 105.989 102.636 104.684 102.183C103.887 101.911 102.672 101.295 101.983 100.841C101.294 100.37 100.37 99.5722 99.9349 99.0827C99.4999 98.5751 98.9198 97.7229 98.6117 97.179C98.3216 96.6351 97.9228 95.5292 97.7053 94.7314C97.5059 93.9156 97.3428 92.719 97.3428 92.0119C97.3428 91.3048 97.4697 90.1807 97.6147 89.4736C97.7778 88.7665 98.1585 87.6787 98.4848 87.026C98.8654 86.2464 99.518 85.3762 100.424 84.4878C101.222 83.6901 102.237 82.8742 102.872 82.5478Z" fill="#2B3D52"/>
<path d="M81.6813 82.3662C82.2795 82.0398 83.2403 81.6591 83.8384 81.514C84.6542 81.2965 85.633 81.2421 87.6451 81.2965C89.5485 81.3509 90.6724 81.4596 91.3612 81.6772C91.905 81.8404 92.8295 82.203 93.4095 82.4568C93.9896 82.7288 94.4609 83.0007 94.4428 83.0732C94.4428 83.1639 94.1528 83.9798 93.7721 84.8863C93.4095 85.8109 93.0833 86.6087 93.0651 86.6631C93.0289 86.7174 92.5757 86.5361 92.05 86.2823C91.5243 86.0104 90.5998 85.6478 90.0017 85.4665C89.3128 85.267 88.3158 85.1401 87.2826 85.1401C86.3944 85.1401 85.3611 85.2308 85.0167 85.3577C84.6723 85.4665 84.1285 85.8109 83.8384 86.1191C83.4215 86.5543 83.2946 86.8625 83.2946 87.3883C83.2946 87.8778 83.4215 88.2223 83.7478 88.5486C84.0016 88.8206 84.5635 89.1469 85.0167 89.292C85.4699 89.437 86.8294 89.7996 88.0621 90.1078C89.2766 90.3979 90.7449 90.833 91.3249 91.0325C91.8869 91.25 92.612 91.5945 92.902 91.7939C93.192 91.9934 93.6815 92.3741 93.9715 92.6279C94.2615 92.8818 94.6784 93.4982 94.9141 94.0058C95.2404 94.6767 95.3491 95.2387 95.3491 96.1815C95.3491 96.9248 95.2223 97.8313 95.041 98.3571C94.8416 98.9192 94.3703 99.6444 93.8083 100.225C93.2645 100.805 92.4669 101.421 91.8144 101.729C91.2162 102.019 90.1104 102.382 89.3672 102.545C88.3702 102.763 87.4457 102.817 85.8324 102.745C84.5273 102.69 83.0771 102.491 82.207 102.273C81.4094 102.056 80.1587 101.602 79.4517 101.258C78.7266 100.913 78.1284 100.515 78.1284 100.388C78.1284 100.279 78.4185 99.4812 78.781 98.6291C79.1254 97.777 79.4698 97.0336 79.5423 96.9611C79.6148 96.8886 80.3218 97.1424 81.1194 97.5413C81.917 97.9401 83.1134 98.3934 83.8022 98.5384C84.4729 98.6835 85.6874 98.8104 86.5213 98.8104C87.337 98.8104 88.3158 98.7197 88.6965 98.6291C89.059 98.5203 89.621 98.2483 89.911 97.9945C90.3642 97.6138 90.4548 97.4143 90.4548 96.7254C90.4548 96.0183 90.3642 95.837 89.8748 95.4381C89.5485 95.1662 89.0772 94.8761 88.8234 94.7854C88.5696 94.6948 87.192 94.2959 85.7418 93.9152C84.2916 93.5345 82.6239 93.0449 82.0257 92.8092C81.2463 92.5192 80.6481 92.1203 79.9411 91.3951C79.2342 90.688 78.8535 90.1259 78.6904 89.5639C78.5635 89.1106 78.4547 88.1679 78.4728 87.4789C78.491 86.5724 78.5997 85.956 78.9079 85.3033C79.1435 84.7956 79.6148 84.0704 79.9774 83.6715C80.3218 83.2727 81.1013 82.6925 81.6813 82.3662Z" fill="#2B3D52"/>
<path fill-rule="evenodd" clip-rule="evenodd" d="M105.899 0L141.12 0.0906517L154.498 23.4788C161.875 36.3513 167.93 46.9938 167.984 47.1389C168.038 47.2839 165.7 51.5445 157.162 66.357H70.696L70.3335 65.7587C70.1341 65.4505 69.7897 64.8522 69.1733 63.7281L70.2428 61.8244C70.8229 60.7729 71.6386 59.395 72.0555 58.7423C72.4725 58.0896 75.3365 53.1581 78.4363 47.7734C81.536 42.3887 84.2007 37.7111 84.3638 37.3848C84.6176 36.859 84.6539 35.4448 84.6539 9.42778H100.424L100.841 8.73882C101.077 8.37622 102.31 6.25497 103.579 4.02493L105.899 0ZM106.896 8.39435C105.844 10.2074 98.5936 22.8442 90.7627 36.4601L76.5329 61.208C86.666 61.2805 88.0618 61.2443 88.2249 61.063C88.3518 60.9361 95.6026 48.3899 104.34 33.1966C113.077 17.9853 120.274 5.4391 120.31 5.31219C120.364 5.13089 119.132 5.09462 114.582 5.09462H108.799L106.896 8.39435ZM110.231 33.0153C101.403 48.3717 94.1525 61.0086 94.1343 61.0992C94.1162 61.208 96.3096 61.2805 99.9894 61.2805H105.881C130.515 18.3479 137.766 5.71106 137.893 5.49349L138.147 5.07649L126.274 5.09462L110.231 33.0153ZM135.228 20.2153C151.706 48.8794 156.491 57.2193 156.51 57.2556C156.528 57.2737 157.815 55.0981 159.392 52.3967C160.969 49.7134 162.22 47.3927 162.202 47.2658C162.183 47.1207 157.452 38.7627 151.706 28.6822C145.96 18.5836 141.174 10.3343 141.083 10.3343C140.975 10.3343 139.615 12.5643 138.056 15.2657L135.228 20.2153ZM89.5663 21.3575C89.5663 25.3462 89.6207 28.1202 89.7294 28.0114C89.802 27.9207 91.5784 24.893 93.6449 21.3031C95.7114 17.7133 97.4335 14.7218 97.4697 14.6493C97.506 14.5768 95.7476 14.5043 93.5543 14.5043H89.5663V21.3575ZM112.37 60.0658L111.681 61.2987C149.078 61.2987 152.83 61.2624 152.794 61.063C152.757 60.9361 148.226 52.9587 142.697 43.3315C137.168 33.7224 132.564 25.7632 132.455 25.6363C132.31 25.4731 129.863 29.5706 122.648 42.1168C117.373 51.3089 112.733 59.3769 112.37 60.0658Z" fill="url(#paint0_linear_139_7)"/>
<path d="M102.636 115.183C102.962 114.874 103.597 114.439 104.05 114.24C104.594 113.986 105.246 113.859 106.044 113.859C106.697 113.859 107.548 113.968 107.947 114.095C108.346 114.204 109.035 114.657 110.304 115.872L109.76 116.307C109.47 116.542 109.162 116.742 109.089 116.76C108.999 116.76 108.69 116.506 108.4 116.216C108.11 115.908 107.512 115.582 107.095 115.473C106.66 115.364 106.026 115.328 105.681 115.382C105.337 115.436 104.757 115.672 104.412 115.89C104.068 116.125 103.633 116.561 103.416 116.851C103.216 117.141 102.98 117.739 102.908 118.156C102.835 118.591 102.835 119.28 102.908 119.697C102.98 120.132 103.198 120.712 103.416 121.002C103.615 121.293 103.977 121.691 104.231 121.873C104.485 122.054 105.029 122.29 105.464 122.38C106.008 122.507 106.479 122.489 107.077 122.326C107.548 122.217 108.147 121.891 108.419 121.601C108.69 121.329 108.981 121.111 109.071 121.111C109.144 121.111 109.452 121.293 110.268 121.927L109.724 122.562C109.434 122.906 108.872 123.341 108.473 123.541C108.092 123.722 107.44 123.921 107.059 123.994C106.66 124.048 106.316 124.212 106.28 124.32C106.261 124.447 106.388 124.592 106.588 124.647C106.787 124.701 107.113 124.919 107.313 125.136C107.53 125.372 107.675 125.807 107.675 126.133C107.675 126.46 107.585 126.895 107.494 127.094C107.403 127.294 107.059 127.584 106.769 127.729C106.479 127.874 105.917 128.001 105.536 128.001C105.174 128.001 104.594 127.928 104.267 127.819C103.778 127.674 103.706 127.566 103.796 127.221C103.851 127.004 103.959 126.75 104.032 126.677C104.086 126.587 104.431 126.605 104.775 126.677C105.119 126.768 105.591 126.804 105.808 126.786C106.044 126.75 106.261 126.605 106.316 126.46C106.37 126.315 106.37 126.061 106.316 125.916C106.261 125.771 105.899 125.589 105.5 125.499C104.884 125.39 104.793 125.318 104.884 125.009C104.938 124.81 105.011 124.502 105.065 124.32C105.101 124.139 105.011 123.976 104.829 123.903C104.648 123.849 104.177 123.668 103.796 123.504C103.397 123.323 102.763 122.834 102.382 122.38C102.002 121.927 101.548 121.148 101.385 120.658C101.186 120.023 101.131 119.353 101.186 118.482C101.24 117.703 101.422 116.941 101.657 116.488C101.857 116.089 102.292 115.509 102.636 115.183Z" fill="#2B3D52"/>
<path d="M0.30816 117.377C0.525685 116.96 0.888227 116.615 1.35953 116.379C1.75833 116.198 2.22963 116.035 2.39277 116.035C2.57405 116.035 2.99097 116.144 3.29913 116.289C3.62542 116.416 4.09672 116.76 4.3505 117.032C4.65866 117.358 4.8218 117.775 4.87618 118.356C4.91244 118.9 4.83993 119.425 4.64053 119.806C4.47739 120.114 4.07859 120.549 3.77043 120.749C3.42602 120.948 2.84595 121.111 2.44716 121.111C2.04836 121.111 1.46829 120.948 1.14201 120.749C0.815719 120.549 0.416923 120.15 0.271906 119.842C0.12689 119.552 0 119.008 0 118.664C0 118.319 0.145017 117.739 0.30816 117.377Z" fill="#2B3D52"/>
<defs>
<linearGradient id="paint0_linear_139_7" x1="168.042" y1="66.4442" x2="69.1836" y2="-0.016271" gradientUnits="userSpaceOnUse">
<stop stop-color="#6CBE50"/>
<stop offset="1" stop-color="#FFF3C4"/>
</linearGradient>
</defs>
</svg>
