<svg width="171" height="128" viewBox="0 0 171 128" fill="none" xmlns="http://www.w3.org/2000/svg">
<path d="M77.4889 4.86611C80.6624 2.4042 83.278 0.288504 83.278 0.192336C83.278 0.0961681 83.4896 0 83.7589 0C84.0281 0 84.2397 0.115402 84.2397 0.250037C84.2397 0.365439 86.7207 2.38497 89.7403 4.71224C92.7791 7.03951 95.6833 9.28984 96.241 9.73221C96.7795 10.1554 98.9913 11.8864 101.165 13.5597C103.338 15.233 106.242 17.4641 107.608 18.5412C108.973 19.5991 110.55 20.8108 111.089 21.2339C111.647 21.6763 114.262 23.7151 121.763 29.5236L121.744 36.3515L117.243 32.851C114.762 30.9084 111.897 28.6773 110.858 27.8888C109.819 27.1002 108.262 25.8885 107.396 25.196C106.511 24.5036 104.992 23.3304 104.011 22.561C103.03 21.8109 101.376 20.5223 100.357 19.7337C99.3183 18.9259 98.3566 18.2719 98.2412 18.2719C98.1066 18.2912 96.7411 19.2144 95.2217 20.3492C93.7023 21.484 91.0481 23.4458 89.3556 24.696C87.6439 25.9654 85.6822 27.4079 83.6627 28.8504L82.0856 27.8118C81.2009 27.2348 79.8931 26.3885 79.143 25.9077C78.3929 25.4268 76.9312 24.4844 75.8734 23.8112C74.8156 23.1381 72.4115 21.6186 70.5459 20.4261C68.6611 19.2336 67.007 18.3104 66.8916 18.3489C66.757 18.3873 65.3722 19.3683 63.8336 20.5223C62.2757 21.6571 59.0254 24.0613 56.6213 25.85C54.1979 27.6579 51.2168 29.8698 50.0052 30.7738C48.7935 31.6778 47.3318 32.7356 45.7739 33.8512L45.7932 29.3313L50.4283 25.7731C52.967 23.8112 55.5827 21.8109 56.2366 21.3109C56.8339 20.8403 60.1902 18.2407 63.8534 15.4034L64.5452 14.8676C68.4687 11.8094 74.2963 7.30878 77.4889 4.86611Z" fill="#147532"/>
<path d="M164.71 108.016C165.037 107.978 165.826 107.843 166.46 107.747C167.095 107.651 167.768 107.554 167.96 107.535C168.268 107.516 168.287 107.958 168.287 114.536C168.287 118.825 168.364 121.71 168.48 121.941C168.595 122.153 168.999 122.403 169.441 122.518C169.903 122.634 170.191 122.807 170.153 122.941C170.095 123.134 169.345 123.191 167.153 123.191C164.71 123.191 164.248 123.153 164.287 122.903C164.325 122.749 164.614 122.576 164.941 122.518C165.249 122.46 165.672 122.287 165.864 122.134C166.153 121.864 166.191 121.306 166.172 115.883C166.172 111.555 166.095 109.786 165.922 109.439C165.749 109.112 165.46 108.939 164.883 108.824C164.345 108.728 164.056 108.574 164.075 108.381C164.095 108.228 164.364 108.074 164.71 108.016Z" fill="#147532"/>
<path d="M2.96184 108.613C2.92337 108.536 2.90414 108.363 2.94261 108.229C2.98107 108.036 3.78885 107.979 6.63529 107.979C10.1549 107.998 10.2895 108.017 10.2895 108.382C10.2895 108.671 10.1164 108.786 9.5202 108.902C9.09708 108.959 8.5778 109.209 8.36624 109.44C8.00081 109.825 7.98158 110.171 7.88542 117.095C7.80849 123.154 7.73156 124.462 7.48153 125.02C7.30844 125.385 6.88532 126.02 6.51989 126.443C6.15447 126.847 5.51979 127.366 5.09667 127.578C4.53892 127.885 3.96194 127.981 2.98107 128.001C1.96174 128.001 1.48092 127.905 1.01933 127.616C0.673145 127.404 0.307724 127.039 0.192327 126.789C0.0961636 126.558 0 126.174 0 125.923C0 125.693 0.134629 125.308 0.288491 125.058C0.480818 124.769 0.769309 124.635 1.19243 124.635C1.53862 124.635 1.98097 124.789 2.1733 124.981C2.36563 125.154 2.51949 125.481 2.50025 125.693C2.50025 125.904 2.40409 126.174 2.30793 126.27C2.15407 126.404 2.19253 126.558 2.44256 126.827C2.71181 127.097 2.94261 127.154 3.46189 127.058C3.82731 127.001 4.25043 126.827 4.40429 126.693C4.53892 126.577 4.80818 126.193 4.98128 125.885C5.25053 125.385 5.289 124.366 5.289 117.711C5.289 110.787 5.25053 110.056 4.94281 109.575C4.71202 109.209 4.38506 109.017 3.82731 108.902C3.38496 108.825 3.00031 108.709 2.96184 108.613Z" fill="#80B422"/>
<path fill-rule="evenodd" clip-rule="evenodd" d="M98.2218 22.8877C98.3564 22.8877 101.068 24.9072 104.222 27.3691C107.396 29.8118 112.55 33.8124 115.685 36.2551C118.82 38.6977 121.474 40.7557 121.57 40.8711C121.666 40.9865 121.724 43.6985 121.647 52.7383L116.262 48.4492C113.3 46.1027 110.146 43.5831 109.242 42.8522C108.338 42.1406 107.492 41.5443 107.377 41.5443C107.242 41.5443 106.165 42.256 104.992 43.1215C103.819 44.0062 100.607 46.3912 92.8943 52.1228L90.7403 50.6418C89.5478 49.834 87.9708 48.7569 87.2207 48.2376C86.4706 47.7375 83.4895 45.6988 80.5854 43.7177C77.6812 41.7174 75.2964 40.0056 75.2964 39.871C75.2964 39.7556 76.9696 38.4285 79.0275 36.909C81.0854 35.3896 85.1051 32.4083 87.9708 30.2926C90.8364 28.1577 94.2599 25.6381 95.5677 24.6572C96.8755 23.6763 98.0679 22.8877 98.2218 22.8877ZM148.4 110.401C148.842 110.401 148.862 110.458 148.958 112.997L150.362 113.036C151.708 113.093 151.746 113.113 151.746 113.574C151.746 114.036 151.708 114.055 148.862 114.055L148.919 117.69C148.958 121.018 148.996 121.364 149.342 121.729C149.554 121.96 149.958 122.152 150.266 122.133C150.554 122.133 151.016 122.037 151.323 121.941C151.612 121.825 151.958 121.787 152.093 121.845C152.266 121.902 152.266 122.056 152.131 122.326C152.035 122.537 151.535 122.903 151.035 123.114C150.342 123.422 149.881 123.499 149.246 123.422C148.765 123.364 148.169 123.229 147.9 123.114C147.631 122.979 147.284 122.691 147.131 122.46C146.9 122.133 146.823 121.152 146.65 114.151L145.977 114.055C145.611 113.997 145.304 113.843 145.304 113.728C145.304 113.593 145.323 113.382 145.361 113.286C145.38 113.19 145.669 113.093 145.977 113.093C146.361 113.093 146.746 112.92 147.034 112.613C147.304 112.343 147.611 111.747 147.727 111.266C147.9 110.535 148.015 110.401 148.4 110.401ZM139.784 112.728C140.111 112.709 140.688 112.824 141.034 112.978C141.361 113.113 141.842 113.44 142.053 113.69C142.284 113.94 142.553 114.459 142.688 114.824C142.822 115.209 142.899 116.748 142.899 118.479C142.899 120.46 142.976 121.614 143.149 121.941C143.265 122.191 143.592 122.46 143.861 122.518C144.13 122.576 144.361 122.749 144.4 122.903C144.438 123.153 144.015 123.191 141.842 123.191C139.63 123.191 139.245 123.153 139.284 122.903C139.322 122.749 139.534 122.595 139.784 122.576C140.015 122.537 140.341 122.326 140.495 122.095C140.726 121.749 140.784 121.037 140.784 118.767C140.765 117.075 140.668 115.613 140.534 115.209C140.361 114.728 140.072 114.421 139.495 114.113C138.784 113.728 138.572 113.709 138.053 113.882C137.707 114.017 137.168 114.344 136.841 114.651C136.533 114.94 136.149 115.517 136.033 115.921C135.899 116.325 135.783 117.652 135.783 118.921C135.783 120.498 135.86 121.364 136.072 121.845C136.226 122.21 136.514 122.595 136.706 122.71C136.937 122.845 136.572 122.883 135.399 122.883C134.495 122.864 133.706 122.826 133.629 122.787C133.533 122.749 133.591 122.576 133.725 122.422C133.841 122.249 134.014 122.114 134.11 122.133C134.187 122.133 134.206 122.268 134.149 122.422C134.091 122.576 134.149 122.672 134.245 122.614C134.36 122.556 134.399 122.037 134.341 121.364C134.264 120.518 134.302 120.21 134.495 120.21C134.649 120.21 134.629 120.152 134.437 120.037C134.187 119.883 134.187 119.825 134.437 119.517C134.61 119.325 134.629 119.229 134.495 119.306C134.302 119.402 134.245 119.094 134.264 117.959C134.264 117.094 134.36 116.344 134.495 116.19C134.668 115.959 134.668 115.94 134.495 116.036C134.322 116.132 134.225 115.978 134.206 115.498C134.168 115.132 134.206 114.824 134.302 114.824C134.379 114.824 134.225 114.632 133.975 114.401C133.706 114.151 133.552 113.863 133.629 113.747C133.706 113.632 134.168 113.44 134.687 113.324C135.187 113.19 135.629 113.093 135.687 113.093C135.745 113.093 135.803 113.324 135.841 113.613C135.86 113.959 135.995 114.17 136.226 114.19C136.399 114.228 136.783 114.036 137.091 113.767C137.38 113.497 137.957 113.151 138.38 112.997C138.803 112.863 139.438 112.728 139.784 112.728ZM157.516 112.709C158.209 112.709 159.074 112.824 159.44 112.978C159.805 113.132 160.305 113.459 160.536 113.709C160.767 113.94 161.036 114.382 161.151 114.69C161.267 114.978 161.363 116.575 161.363 118.286C161.363 119.979 161.459 121.537 161.555 121.749C161.709 122.056 161.882 122.114 162.517 122.037C163.113 121.96 163.286 121.999 163.286 122.229C163.286 122.383 162.998 122.71 162.671 122.941C162.248 123.23 161.747 123.383 161.228 123.383C160.613 123.383 160.305 123.268 159.343 122.306L158.478 122.787C157.997 123.056 157.189 123.326 156.651 123.383C156.055 123.46 155.401 123.403 154.92 123.249C154.439 123.095 154.016 122.768 153.727 122.326C153.439 121.902 153.285 121.364 153.285 120.883C153.285 120.46 153.439 119.806 153.631 119.44C153.804 119.056 154.285 118.594 154.728 118.344C155.151 118.113 155.939 117.825 156.459 117.729C156.997 117.613 157.824 117.479 159.247 117.325V116.517C159.247 116.055 159.19 115.401 159.113 115.036C159.016 114.671 158.747 114.17 158.478 113.901C158.055 113.497 157.862 113.459 157.035 113.536C156.324 113.613 155.978 113.747 155.728 114.074C155.535 114.344 155.439 114.671 155.516 114.824C155.593 114.978 155.67 115.305 155.708 115.555C155.766 115.844 155.631 116.075 155.285 116.325C154.901 116.575 154.67 116.613 154.285 116.459C154.016 116.344 153.727 116.036 153.631 115.748C153.516 115.363 153.574 114.998 153.824 114.497C154.074 113.959 154.439 113.632 155.228 113.228C156.035 112.824 156.535 112.709 157.516 112.709ZM156.016 119.306C155.708 119.614 155.593 119.941 155.593 120.556C155.593 121.095 155.708 121.479 155.978 121.749C156.189 121.96 156.555 122.133 156.805 122.133C157.035 122.133 157.536 122.037 157.901 121.922C158.266 121.787 158.728 121.556 158.92 121.383C159.19 121.133 159.266 120.787 159.247 119.691V118.286C158.286 118.306 157.651 118.421 157.228 118.575C156.805 118.729 156.266 119.056 156.016 119.306Z" fill="#147532"/>
<path fill-rule="evenodd" clip-rule="evenodd" d="M107.281 46.1798C107.396 46.1606 109.646 47.8532 112.281 49.9496C114.897 52.0269 118.09 54.5465 121.763 57.4123L121.667 62.1245C121.609 64.9326 121.455 67.7215 121.263 69.0486C121.09 70.2603 120.782 71.8952 120.571 72.6646C120.378 73.4147 119.994 74.5879 119.744 75.2611C119.494 75.915 119.013 77.0113 118.667 77.7038C118.32 78.3962 117.57 79.6848 116.974 80.5888C116.378 81.4928 115.32 82.7814 114.628 83.4738C113.762 84.3586 112.858 85.0125 111.647 85.628C110.204 86.3781 109.589 86.5897 107.896 86.8397C106.627 87.0321 105.415 87.109 104.627 87.0321C103.934 86.9744 102.684 86.8013 101.838 86.6474C100.992 86.4935 99.703 86.1666 98.953 85.9165C98.2221 85.6665 96.9527 85.1664 96.1642 84.8202C95.3757 84.474 93.7794 83.6662 92.6062 83.0315C91.4522 82.3968 89.4135 81.1466 88.0865 80.2426C86.7594 79.3578 84.9131 78.0115 83.9514 77.2614C83.009 76.5113 81.7204 75.4534 81.105 74.9149C80.5088 74.3956 80.0472 73.934 80.1049 73.9147C80.1626 73.8763 81.1242 74.3186 82.2782 74.8956C83.4129 75.4534 85.2977 76.3382 86.4517 76.8382C87.6249 77.3383 89.7405 78.1269 91.1637 78.6077C92.5869 79.0886 94.6256 79.6656 95.6834 79.9156C96.7412 80.1657 98.5106 80.4734 99.6261 80.608C100.838 80.7427 102.338 80.7811 103.376 80.7042C104.415 80.608 105.8 80.3388 106.838 80.0118C107.992 79.6464 108.896 79.204 109.531 78.7231C110.069 78.3 110.781 77.6268 111.127 77.2037C111.473 76.7998 111.916 75.8958 112.147 75.2034C112.339 74.511 112.512 73.6455 112.512 73.28C112.512 72.9146 112.377 72.0491 112.204 71.3567C112.05 70.6643 111.627 69.5102 111.281 68.7601C110.839 67.7984 110.223 66.9522 109.146 65.7981C108.3 64.9134 107.011 63.7594 106.261 63.2401C105.531 62.7208 104.319 62.0476 103.569 61.7398C102.838 61.4321 101.453 60.9705 100.492 60.682C99.5492 60.4127 97.7221 60.0473 96.4527 59.8934C95.1833 59.7203 93.0485 59.528 89.2404 59.3356L92.8562 56.6814C94.8371 55.2197 98.8376 52.2577 101.742 50.1035C104.646 47.9493 107.146 46.1798 107.281 46.1798ZM40.3508 107.997L40.4085 114.536C40.4662 119.864 40.5432 121.172 40.774 121.633C40.947 121.98 41.3125 122.287 42.4087 122.653L41.4471 122.768C40.9278 122.845 40.1585 122.96 39.7546 123.037C39.1776 123.153 39.043 123.134 39.043 122.903C39.0622 122.749 38.9276 122.499 38.7545 122.383C38.5237 122.172 38.3891 122.21 38.0429 122.576C37.7929 122.826 37.2544 123.134 36.8312 123.268C36.3312 123.441 35.6773 123.499 35.0041 123.403C34.3502 123.345 33.6771 123.114 33.2347 122.807C32.8308 122.537 32.2923 121.999 32.0231 121.614C31.773 121.21 31.4461 120.364 31.3307 119.729C31.2153 119.095 31.1768 118.152 31.2538 117.614C31.3114 117.094 31.5615 116.229 31.7923 115.709C32.0231 115.19 32.6 114.402 33.0809 113.959C33.5617 113.517 34.2925 113.055 34.7156 112.901C35.1388 112.767 35.9273 112.651 36.4658 112.632C37.0043 112.613 37.6775 112.747 37.966 112.901C38.4276 113.151 38.5045 113.151 38.6584 112.901C38.7737 112.747 38.8507 112.017 38.8507 111.266C38.8507 110.536 38.7353 109.709 38.6007 109.439C38.4083 109.074 38.1775 108.939 37.6006 108.901C37.1774 108.862 36.7158 108.747 36.6004 108.651C36.4658 108.554 36.3889 108.362 36.4466 108.208C36.5235 107.997 36.9659 107.939 40.3508 107.997ZM34.1387 115.113C33.8502 115.729 33.7732 116.267 33.7732 117.806C33.7732 119.191 33.8694 119.922 34.1002 120.402C34.2733 120.768 34.5233 121.229 34.6579 121.403C34.7926 121.576 35.1772 121.826 35.485 121.941C35.9465 122.133 36.2735 122.114 37.2159 121.826C37.8506 121.653 38.4853 121.364 38.6199 121.191C38.793 120.979 38.8507 120.018 38.8699 117.902C38.8699 115.325 38.8122 114.863 38.5237 114.459C38.3314 114.209 38.0044 113.978 37.7929 113.921C37.5813 113.882 37.062 113.805 36.6389 113.748C36.1196 113.69 35.658 113.767 35.1965 113.998C34.7926 114.209 34.3695 114.632 34.1387 115.113ZM45.9283 108.285C46.1591 108.285 46.4861 108.42 46.6399 108.574C46.7938 108.728 46.9284 108.997 46.9284 109.151C46.9284 109.305 46.8515 109.612 46.7361 109.824C46.6079 110.08 46.3514 110.209 45.9668 110.209C45.6591 110.209 45.2552 110.055 45.0821 109.882C44.8705 109.651 44.8128 109.382 44.909 109.055C44.9859 108.785 45.1398 108.516 45.2744 108.439C45.3898 108.362 45.6783 108.285 45.9283 108.285ZM16.0214 112.613C16.6176 112.67 17.4639 112.882 17.887 113.094C18.4255 113.363 18.7717 113.709 19.041 114.305C19.3679 114.998 19.4256 115.536 19.4256 118.287C19.4256 120.729 19.4833 121.556 19.6949 121.845C19.9449 122.191 20.0411 122.21 20.5604 121.999C21.0604 121.787 21.1758 121.787 21.2527 122.037C21.3104 122.191 21.2335 122.46 21.1181 122.634C20.9835 122.807 20.6373 123.076 20.3488 123.211C20.0411 123.364 19.5026 123.48 19.1371 123.48C18.6755 123.48 18.2909 123.326 17.3293 122.422L16.2138 122.96C15.4701 123.319 14.7969 123.493 14.1943 123.48C13.675 123.48 12.9634 123.345 12.598 123.191C12.098 122.98 11.8287 122.672 11.521 121.999C11.2132 121.287 11.1555 120.902 11.2709 120.306C11.3479 119.883 11.6364 119.287 11.9056 118.979C12.1749 118.671 12.7519 118.248 13.175 118.037C13.5981 117.844 14.6559 117.575 17.1177 117.229V116.133C17.1177 115.517 17.0408 114.805 16.9254 114.536C16.8292 114.267 16.4253 113.901 16.0407 113.728C15.4252 113.421 15.2906 113.401 14.5597 113.671C13.752 113.959 13.752 113.959 13.752 114.94C13.752 115.536 13.6366 116.036 13.4635 116.248C13.3096 116.421 12.9442 116.575 12.6557 116.556C12.348 116.556 11.9826 116.421 11.8287 116.267C11.6748 116.113 11.5402 115.671 11.5402 115.305C11.5402 114.805 11.7133 114.44 12.1749 113.94C12.5403 113.517 13.1942 113.113 13.8481 112.882C14.6367 112.613 15.1944 112.536 16.0214 112.613ZM14.1943 119.287C13.7904 119.691 13.6558 120.018 13.6558 120.556C13.6558 120.941 13.7327 121.364 13.8097 121.499C13.8866 121.614 14.1559 121.806 14.4251 121.903C14.6944 122.018 15.1944 122.037 15.5791 121.96C15.9445 121.883 16.4445 121.691 16.6753 121.537C16.9831 121.345 17.1177 121.037 17.1562 120.402C17.1946 119.922 17.1946 119.248 17.1946 118.921C17.1754 118.383 17.0985 118.287 16.7138 118.306C16.4638 118.325 15.906 118.421 15.4829 118.537C15.0598 118.652 14.4828 118.998 14.1943 119.287ZM28.9458 112.651C29.2728 112.69 29.7151 112.844 29.9652 112.997C30.196 113.151 30.446 113.517 30.5037 113.825C30.5806 114.132 30.5229 114.536 30.369 114.825C30.1767 115.132 29.8882 115.325 29.5228 115.363C29.1958 115.382 28.8304 115.305 28.6958 115.171C28.5612 115.036 28.4458 114.748 28.4073 114.555C28.3881 114.363 28.215 114.094 28.0419 113.978C27.7726 113.805 27.5995 113.863 27.1764 114.171C26.8879 114.382 26.484 114.863 26.3109 115.229C26.0224 115.767 25.9648 116.402 25.9648 118.768C25.9455 121.287 26.0032 121.691 26.2917 121.999C26.484 122.172 27.0033 122.403 27.4649 122.48C27.9073 122.557 28.3111 122.73 28.3688 122.864C28.4265 122.98 28.3496 123.134 28.2342 123.191C28.0996 123.249 26.5994 123.268 24.907 123.249C22.3682 123.191 21.8297 123.134 21.8297 122.903C21.8297 122.749 22.0797 122.595 22.4259 122.518C22.7337 122.46 23.1568 122.287 23.3491 122.133C23.6376 121.883 23.6761 121.441 23.6568 118.344C23.6568 115.094 23.6376 114.805 23.2722 114.44C23.0606 114.228 22.676 114.055 22.4067 114.055C22.1374 114.055 21.8682 113.921 21.7912 113.748C21.6951 113.555 21.7528 113.382 21.9259 113.267C22.0797 113.171 22.599 113.094 23.0798 113.094C23.5607 113.094 24.253 113.017 24.6185 112.901C25.0993 112.767 25.3685 112.786 25.5416 112.959C25.6955 113.094 25.7724 113.421 25.734 113.709C25.7147 113.998 25.6955 114.248 25.734 114.248C25.7532 114.248 26.0994 113.901 26.5033 113.498C26.9264 113.055 27.4649 112.709 27.7919 112.651C28.1188 112.594 28.6381 112.594 28.9458 112.651ZM57.1218 112.959C57.6988 112.997 58.4488 113.19 58.795 113.401C59.1412 113.594 59.5643 114.075 59.7374 114.44C59.9874 114.959 60.0836 115.94 60.1798 118.575C60.2375 120.479 60.3721 122.153 60.449 122.287C60.526 122.403 60.776 122.595 61.026 122.691C61.3145 122.826 60.8337 122.884 59.3335 122.884C57.8334 122.884 57.3526 122.826 57.6603 122.691C57.8911 122.595 58.218 122.21 58.3719 121.845C58.5642 121.383 58.6604 120.518 58.6604 119.114C58.6604 117.96 58.5835 116.556 58.4681 115.979C58.3334 115.229 58.1026 114.748 57.6988 114.344C57.2564 113.901 56.9487 113.767 56.3909 113.767C56.0063 113.767 55.3331 113.959 54.91 114.171C54.41 114.421 54.0061 114.825 53.756 115.325C53.4291 115.979 53.3714 116.46 53.3714 121.98L54.4292 122.903L52.3713 122.884C50.9673 122.884 50.448 122.826 50.7557 122.71C51.0058 122.614 51.3327 122.345 51.4866 122.095C51.6789 121.768 51.7366 120.806 51.7366 118.383C51.7366 116.133 51.6597 114.959 51.4866 114.632C51.352 114.363 51.025 114.055 50.775 113.921C50.3134 113.709 50.3519 113.69 51.352 113.478C51.9289 113.363 52.6021 113.228 52.8521 113.19C53.1983 113.113 53.2752 113.19 53.3329 113.613C53.3522 113.959 53.4868 114.171 53.7176 114.19C53.8907 114.228 54.2176 114.075 54.4292 113.863C54.6407 113.651 55.1023 113.344 55.4485 113.19C55.8332 112.997 56.4486 112.921 57.1218 112.959ZM46.6015 113.113C46.9092 113.094 46.9284 113.421 46.9284 117.383C46.9284 120.864 46.9861 121.73 47.2169 122.095C47.3708 122.326 47.6977 122.595 47.9478 122.691C48.2362 122.826 47.6785 122.884 46.063 122.884C43.8897 122.884 43.7935 122.864 44.3897 122.614C44.7359 122.441 45.1013 122.095 45.2167 121.806C45.3321 121.479 45.3898 120.056 45.3513 118.191C45.3129 115.94 45.2167 114.959 45.0052 114.555C44.8321 114.209 44.4474 113.901 43.3704 113.517L44.2358 113.478C44.7167 113.459 45.3706 113.363 45.6783 113.286C46.0053 113.209 46.4091 113.132 46.6015 113.113Z" fill="#80B422"/>
<path fill-rule="evenodd" clip-rule="evenodd" d="M87.2013 107.554C87.6052 107.612 87.6052 107.669 87.7013 114.69C87.7783 120.691 87.836 121.787 88.086 121.941C88.2399 122.037 88.6053 122.133 88.913 122.133C89.2977 122.133 89.4323 122.229 89.4323 122.518C89.4323 122.845 89.24 122.922 88.336 123.075C87.7206 123.152 86.8936 123.21 86.5089 123.172C86.0858 123.133 85.7781 122.999 85.7781 122.845C85.7973 122.729 85.6819 122.498 85.5473 122.364C85.3549 122.172 85.1242 122.229 84.4318 122.614C83.7779 122.96 83.2778 123.095 82.4123 123.095C81.5661 123.095 81.0276 122.979 80.3929 122.652C79.7198 122.306 79.412 121.96 78.9889 121.152C78.5273 120.248 78.4504 119.902 78.4696 118.479C78.4889 117.575 78.585 116.536 78.7197 116.171C78.8543 115.786 79.1812 115.17 79.489 114.767C79.7775 114.382 80.4121 113.824 80.9314 113.516C81.7584 113.036 82.0085 112.997 83.6625 113.016C84.7972 113.036 85.5473 112.959 85.6242 112.824C85.7011 112.709 85.7781 112.055 85.7781 111.362C85.7781 110.554 85.6627 109.881 85.4319 109.439C85.1819 108.939 84.9318 108.727 83.5663 108.362L85.1049 108.15C85.9512 108.035 86.682 107.823 86.7205 107.708C86.7589 107.592 86.9705 107.515 87.2013 107.554ZM81.2391 114.286C80.8737 114.69 80.566 115.286 80.4314 115.921C80.2967 116.478 80.2006 117.344 80.2006 117.844C80.2006 118.363 80.3352 119.248 80.5083 119.825C80.6814 120.402 81.0276 121.171 81.2776 121.498C81.5661 121.902 81.97 122.172 82.3739 122.248C82.7008 122.306 83.3355 122.306 83.7586 122.229C84.2587 122.133 84.7395 121.864 85.1626 121.441L85.7781 120.787C85.7973 115.094 85.7588 114.882 85.3549 114.363C85.1049 114.055 84.701 113.728 84.4318 113.632C84.1625 113.536 83.7779 113.42 83.5663 113.382C83.3547 113.343 82.8739 113.401 82.5085 113.497C82.1431 113.574 81.5661 113.94 81.2391 114.286ZM116.858 107.996L117.993 108.573C118.878 109.035 119.205 109.323 119.57 110.016C119.878 110.612 120.012 111.208 120.012 111.882C120.012 112.439 119.897 113.189 119.762 113.516C119.608 113.863 119.128 114.478 118.704 114.863C118.224 115.305 117.493 115.709 116.897 115.882C116.339 116.055 115.3 116.248 113.281 116.459V118.806C113.281 120.114 113.377 121.344 113.473 121.556C113.569 121.768 113.973 122.075 114.339 122.229C114.704 122.383 115.223 122.518 115.493 122.518C115.839 122.518 115.973 122.614 115.973 122.902C115.973 123.268 115.858 123.287 112.185 123.229C108.992 123.191 108.377 123.152 108.377 122.902C108.377 122.749 108.684 122.575 109.146 122.46C109.569 122.383 110.069 122.152 110.261 121.979C110.588 121.671 110.608 121.248 110.473 109.65L109.992 109.247C109.742 109.035 109.357 108.843 109.146 108.843C108.934 108.862 108.627 108.785 108.473 108.689C108.319 108.593 108.242 108.4 108.3 108.246C108.396 108.054 109.3 107.996 116.858 107.996ZM113.204 109.227L113.281 115.401C114.781 115.401 115.57 115.247 115.993 115.055C116.493 114.863 116.897 114.517 117.089 114.151C117.243 113.824 117.416 113.093 117.454 112.516C117.493 111.939 117.416 111.074 117.281 110.612C117.147 110.15 116.82 109.612 116.55 109.42C116.281 109.227 115.646 109.016 115.108 108.977C114.589 108.92 113.935 108.958 113.685 109.054L113.204 109.227ZM95.6637 112.689C96.4138 112.689 97.4139 112.824 97.8755 112.978C98.4332 113.151 99.0486 113.574 99.5679 114.132C100.145 114.747 100.472 115.344 100.703 116.113C100.914 116.901 100.972 117.575 100.895 118.459C100.818 119.19 100.568 120.152 100.28 120.729C99.9718 121.383 99.5102 121.941 98.991 122.325C98.5294 122.652 97.7024 123.056 97.1061 123.21C96.3945 123.422 95.7022 123.479 94.9905 123.402C94.4136 123.326 93.5481 123.095 93.0865 122.845C92.6057 122.614 91.971 122.056 91.6825 121.633C91.3748 121.21 91.0094 120.44 90.8555 119.902C90.7016 119.383 90.567 118.479 90.567 117.882C90.567 117.305 90.7016 116.44 90.8555 115.959C91.0094 115.497 91.394 114.805 91.6825 114.42C91.9902 114.055 92.7018 113.516 93.2788 113.228C94.1251 112.785 94.5867 112.689 95.6637 112.689ZM94.0674 114.209C93.7789 114.497 93.4327 115.113 93.2981 115.594C93.125 116.132 93.0673 117.132 93.1057 118.363C93.1634 119.806 93.2788 120.479 93.5481 121.056C93.7596 121.479 94.202 121.979 94.5097 122.172C94.9521 122.441 95.3367 122.498 96.0483 122.441C96.8561 122.364 97.1061 122.248 97.5485 121.71C97.837 121.364 98.1447 120.691 98.2601 120.248C98.3755 119.806 98.4524 118.709 98.4524 117.844C98.4524 116.863 98.3178 115.901 98.1062 115.305C97.9331 114.786 97.5677 114.209 97.2985 114.016C97.0484 113.805 96.5292 113.613 96.1445 113.574C95.7791 113.536 95.279 113.536 95.029 113.593C94.779 113.651 94.3366 113.92 94.0674 114.209ZM126.224 112.747C127.455 112.785 127.975 112.862 128.148 113.074C128.263 113.247 128.686 113.613 129.09 113.901C129.475 114.19 129.975 114.747 130.167 115.151C130.36 115.555 130.571 116.305 130.648 116.825C130.706 117.363 130.667 118.363 130.571 119.036C130.456 119.806 130.186 120.594 129.879 121.056C129.609 121.479 128.898 122.172 128.302 122.595C127.244 123.326 127.148 123.345 125.667 123.364C124.474 123.364 123.955 123.268 123.359 122.941C122.936 122.729 122.359 122.306 122.07 121.998C121.801 121.691 121.397 121.056 121.186 120.575C120.974 120.114 120.743 119.286 120.666 118.748C120.609 118.229 120.628 117.325 120.743 116.728C120.859 116.151 121.186 115.305 121.493 114.863C121.782 114.42 122.32 113.843 122.686 113.593C123.07 113.343 123.628 113.036 123.936 112.92C124.263 112.805 125.282 112.728 126.224 112.747ZM124.07 114.305C123.84 114.536 123.513 115.151 123.359 115.671C123.205 116.209 123.07 117.19 123.07 117.844C123.07 118.498 123.166 119.498 123.301 120.056C123.455 120.767 123.705 121.268 124.205 121.787C124.82 122.402 125.013 122.498 125.821 122.498C126.513 122.498 126.859 122.402 127.302 122.018C127.628 121.768 127.975 121.537 128.071 121.537C128.186 121.537 128.398 121.094 128.552 120.537C128.725 119.979 128.84 118.806 128.84 117.882C128.84 116.651 128.725 115.998 128.398 115.19C128.167 114.613 127.917 114.19 127.859 114.228C127.782 114.286 127.571 114.19 127.378 113.997C127.186 113.805 126.667 113.613 126.244 113.555C125.821 113.516 125.263 113.555 124.994 113.67C124.744 113.786 124.32 114.074 124.07 114.305ZM66.9685 112.901C67.3531 112.901 68.0455 113.036 68.5071 113.209C69.0648 113.439 69.411 113.459 69.6033 113.343C69.8534 113.17 69.8918 113.324 69.8918 114.459C69.8918 115.19 69.8726 115.767 69.8534 115.767C69.8149 115.767 69.6418 115.401 69.4495 114.959C69.2572 114.517 68.8917 113.959 68.6609 113.747C68.334 113.459 67.9493 113.363 67.0646 113.363C66.0261 113.363 65.8722 113.42 65.3529 113.997C65.0452 114.343 64.7952 114.767 64.7952 114.959C64.7952 115.151 64.949 115.517 65.1414 115.767C65.3529 116.036 66.0261 116.459 66.6415 116.709C67.2762 116.978 68.2571 117.421 68.834 117.729C69.4495 118.036 70.0457 118.517 70.238 118.844C70.4304 119.21 70.565 119.825 70.565 120.44C70.565 121.094 70.4496 121.614 70.238 121.921C70.0457 122.172 69.5456 122.537 69.1225 122.729C68.6609 122.941 67.8916 123.075 67.1608 123.075C66.4876 123.075 65.5645 122.999 65.0837 122.883C64.5067 122.755 64.122 122.755 63.9297 122.883C63.6797 123.056 63.6412 122.883 63.6027 121.633C63.5643 120.844 63.622 120.19 63.6989 120.19C63.7758 120.19 63.872 120.44 63.9297 120.729C63.9874 121.017 64.372 121.575 64.7952 121.979C65.276 122.441 65.8337 122.749 66.2953 122.825C66.68 122.883 67.3339 122.845 67.7378 122.729C68.1417 122.595 68.6032 122.287 68.7956 121.979C68.9687 121.71 69.1225 121.191 69.1225 120.844C69.1225 120.479 68.9687 120.056 68.7379 119.825C68.5263 119.594 67.3723 118.921 66.1415 118.325C64.0643 117.286 63.9297 117.171 63.6797 116.44C63.4681 115.805 63.4681 115.536 63.6797 114.824C63.8143 114.363 64.1605 113.824 64.4105 113.613C64.6798 113.42 65.1991 113.189 65.5645 113.093C65.9491 112.997 66.5646 112.92 66.9685 112.901Z" fill="#3D892C"/>
<path d="M57.2456 29.9497C59.8534 28.0129 63.1111 25.5935 64.5067 24.5802C65.8914 23.5608 67.0839 22.7145 67.18 22.6953C67.257 22.6953 68.4109 23.407 69.7764 24.2917C71.1225 25.1763 72.757 26.234 73.4111 26.6572L73.4114 26.6574C74.0846 27.0613 75.9117 28.2346 77.508 29.2347C79.0851 30.2349 80.3737 31.1196 80.3929 31.2158C80.3929 31.2927 79.1236 32.2737 77.5849 33.4277C76.0463 34.5625 72.469 37.1975 69.6418 39.2747C66.8338 41.3712 62.9681 44.237 61.064 45.641C59.1841 47.0463 56.2916 49.1829 54.5897 50.44L54.5249 50.4879C52.8324 51.7381 50.2745 53.6422 48.8512 54.7001C47.428 55.7387 46.1394 56.7004 46.0048 56.8158C45.7932 56.9889 45.7548 55.3155 45.774 38.4861L49.1013 36.005C50.9091 34.6586 54.5634 31.9467 57.1982 29.9849L57.2456 29.9497Z" fill="#35AB4D"/>
<path d="M60.9679 50.2763C62.718 48.9877 65.8337 46.6604 67.8916 45.1409C69.9495 43.6023 71.7382 42.3328 71.8344 42.3136C71.9497 42.3136 73.623 43.3907 75.5847 44.737C77.5465 46.0834 79.8352 47.6606 80.6814 48.2376C81.5276 48.8338 83.874 50.4302 85.8742 51.7958C87.8937 53.1806 89.5669 54.3346 89.6246 54.3923C89.6823 54.4308 89.5092 54.6231 89.2592 54.7962C88.9899 54.9693 87.5283 56.0464 83.1817 59.2777L81.3545 59.143C80.3545 59.0661 78.662 58.893 77.6042 58.7391C76.5464 58.5852 74.8154 58.239 73.7576 57.989C72.4498 57.662 71.0266 57.1043 69.3341 56.258C67.8916 55.5463 66.2761 54.5654 65.5452 53.9499C64.8144 53.3729 64.1028 52.8921 63.9489 52.8921C63.7951 52.8921 63.6027 53.046 63.545 53.2191C63.4873 53.4114 63.3527 54.6039 63.2373 55.8733C63.1219 57.1427 63.0835 59.6046 63.1604 61.3549C63.2181 63.1052 63.4489 65.7786 63.6604 67.3173C63.8912 68.856 64.2567 70.8371 64.4682 71.741C64.6798 72.645 65.2375 74.5492 65.6991 75.9724C66.1607 77.3957 67.1031 79.7038 67.7762 81.0694C68.4494 82.4349 69.6034 84.3968 70.3342 85.4354C71.0458 86.4548 72.2382 87.955 72.9883 88.782C73.7384 89.6091 75.0654 90.8977 75.9694 91.6478C76.8733 92.398 78.1235 93.3596 78.7581 93.802C79.3928 94.2252 80.816 95.0714 81.9315 95.6484C83.047 96.2447 84.8164 97.0333 85.8742 97.4179C86.932 97.8026 88.4899 98.3219 90.8748 98.9951L89.3361 99.2451C88.4899 99.3798 86.4128 99.5336 84.7203 99.5721C82.4508 99.649 80.9507 99.5913 79.0466 99.3413C77.6234 99.1682 75.3155 98.7258 73.95 98.3796C72.5844 98.0334 70.6804 97.4179 69.7188 97.0333C68.7763 96.6486 67.2954 95.9754 66.4492 95.5523C65.6029 95.1099 64.2182 94.3406 63.372 93.802C62.5257 93.2827 61.1794 92.3595 60.3909 91.7632C59.6023 91.167 58.2368 89.9938 57.3521 89.1475C56.4482 88.3012 55.1019 86.8202 54.3326 85.8778C53.5633 84.9353 52.467 83.4159 51.8708 82.5119C51.2938 81.6079 50.486 80.2231 50.0629 79.4345C49.6206 78.6459 48.9282 77.1649 48.5051 76.1648C48.0819 75.1646 47.505 73.6067 47.2549 72.7027C46.9857 71.7987 46.5818 70.1254 46.351 68.9522C46.1202 67.7789 45.8894 65.6632 45.7163 61.6434L49.0628 59.1238C50.9091 57.739 53.621 55.7194 55.1019 54.6231C56.5828 53.5268 59.2177 51.5842 60.9679 50.2763Z" fill="#35AB4D"/>
</svg>
