<svg width="226" height="225" viewBox="0 0 226 225" fill="none" xmlns="http://www.w3.org/2000/svg">
<path d="M171.224 57.1978C199.103 86.5424 201.46 130.316 178.028 158.845C175.027 162.499 169.553 162.317 166.316 158.871C163.11 155.457 163.326 150.13 166.14 146.386C182.261 124.942 180.864 92.0782 158.873 68.9312L158.873 68.9305C153.169 62.9263 146.433 58.0481 139.074 54.5643C131.716 51.0809 123.915 49.0761 116.136 48.6079C108.361 48.14 100.768 49.2153 93.7745 51.7059C89.7535 53.1378 85.9639 55.0252 82.4678 57.3225C78.5589 59.8911 73.2386 59.7661 70.0365 56.3567C66.7952 52.9055 66.9599 47.4254 70.8083 44.6675C75.8289 41.0694 81.3341 38.1448 87.1988 35.9706L88.0597 35.6582C96.9801 32.4816 106.539 31.089 116.222 31.5524L117.16 31.6032C126.851 32.1865 136.467 34.6168 145.492 38.7607L146.363 39.167C155.639 43.5586 164.087 49.6854 171.224 57.1978Z" fill="#1A1A1A"/>
<path d="M54.3467 167.802C26.4053 138.392 24.7221 93.8965 49.1236 64.6112C52.1505 60.9784 57.622 61.1597 60.8585 64.6071C64.0636 68.0212 63.8513 73.3484 61.0023 77.065C44.1461 99.054 45.0103 132.499 67.0682 155.716L67.0689 155.717C72.7726 161.721 79.5415 166.568 86.9645 169.991C94.3864 173.413 102.281 175.33 110.175 175.688C118.067 176.046 125.795 174.841 132.937 172.21C137.121 170.669 141.068 168.651 144.711 166.207C148.597 163.6 153.92 163.729 157.123 167.141C160.362 170.591 160.198 176.065 156.372 178.851C151.161 182.645 145.452 185.746 139.38 188.071L138.501 188.401C129.392 191.757 119.662 193.313 109.832 192.988L108.88 192.95C99.0449 192.504 89.3138 190.184 80.2084 186.116L79.3293 185.717C69.9723 181.402 61.4831 175.315 54.3467 167.802Z" fill="#1A1A1A"/>
<path d="M75.6472 147.928C57.7726 129.113 56.1745 101.127 71.0812 82.9234C73.0027 80.5769 76.5145 80.6935 78.5907 82.9041C80.6474 85.094 80.5083 88.511 78.7077 90.9159C68.4611 104.602 69.4249 125.608 83.522 140.446L83.5224 140.447C87.181 144.298 91.4974 147.431 96.2097 149.674C100.921 151.916 105.913 153.213 110.888 153.528C115.861 153.842 120.714 153.168 125.181 151.589C127.74 150.684 130.15 149.49 132.374 148.035C134.885 146.393 138.297 146.472 140.351 148.659C142.43 150.873 142.325 154.389 139.853 156.154C136.657 158.437 133.151 160.29 129.416 161.666L128.866 161.864C123.168 163.879 117.059 164.752 110.866 164.437L110.266 164.402C104.068 164.011 97.9151 162.438 92.1363 159.77L91.5783 159.508C85.6383 156.682 80.2248 152.747 75.6472 147.928Z" fill="#1A1A1A"/>
<path d="M150.222 76.1737C168.097 94.9881 169.695 122.974 154.788 141.178C152.866 143.525 149.355 143.408 147.278 141.197C145.222 139.008 145.361 135.591 147.161 133.186C157.408 119.5 156.444 98.4934 142.347 83.6552L142.347 83.6547C138.688 79.8034 134.372 76.6702 129.659 74.4278C124.948 72.1856 119.956 70.8884 114.981 70.574C110.008 70.2599 105.155 70.9331 100.688 72.5128C98.1295 73.4174 95.7188 74.6116 93.4949 76.0666C90.9845 77.7091 87.5722 77.6294 85.5184 75.4427C83.439 73.2288 83.5446 69.7129 86.0162 67.9475C89.2123 65.6646 92.7177 63.8111 96.4531 62.4355L97.003 62.2373C102.701 60.2225 108.81 59.35 115.003 59.665L115.603 59.6993C121.801 60.0909 127.954 61.6638 133.733 64.3316L134.291 64.5932C140.231 67.4199 145.644 71.3549 150.222 76.1737Z" fill="#1A1A1A"/>
<circle cx="112.793" cy="112.277" r="23.4882" fill="#FF0A0A"/>
</svg>
