<svg width="68" height="32" viewBox="0 0 68 32" fill="none" xmlns="http://www.w3.org/2000/svg">
<path d="M40.4775 31.9596C40.4218 31.9596 40.3749 31.9406 40.3369 31.9026C40.2989 31.8646 40.2799 31.8177 40.2799 31.762V29.1889C40.2799 29.1306 40.2989 29.0837 40.3369 29.0482C40.3749 29.0102 40.4218 28.9912 40.4775 28.9912C40.5535 28.9912 40.6118 29.0267 40.6523 29.0976L41.842 31.4807H41.7204L42.8796 29.0976C42.9201 29.0267 42.9784 28.9912 43.0544 28.9912C43.1102 28.9912 43.157 29.0102 43.1951 29.0482C43.2331 29.0837 43.2521 29.1306 43.2521 29.1889V31.762C43.2521 31.8177 43.2318 31.8646 43.1913 31.9026C43.1532 31.9406 43.1076 31.9596 43.0544 31.9596C42.9987 31.9596 42.9518 31.9406 42.9138 31.9026C42.8758 31.8646 42.8568 31.8177 42.8568 31.762V29.7362L42.9328 29.7172L41.937 31.7468C41.8939 31.8126 41.8369 31.8456 41.766 31.8456C41.6824 31.8456 41.6215 31.8063 41.5835 31.7278L40.5991 29.7552L40.6752 29.7362V31.762C40.6752 31.8177 40.6561 31.8646 40.6181 31.9026C40.5801 31.9406 40.5333 31.9596 40.4775 31.9596Z" fill="#1A1A1A"/>
<path d="M44.4661 31.9596C44.3952 31.9596 44.3407 31.9292 44.3027 31.8684C44.2647 31.8076 44.2609 31.743 44.2913 31.6745L45.3593 29.1242C45.3973 29.0356 45.4594 28.9912 45.5455 28.9912C45.6368 28.9912 45.6988 29.0356 45.7318 29.1242L46.8036 31.6821C46.8315 31.7531 46.8264 31.8177 46.7884 31.876C46.7529 31.9317 46.6984 31.9596 46.625 31.9596C46.5869 31.9596 46.5502 31.9495 46.5147 31.9292C46.4818 31.9064 46.4577 31.876 46.4425 31.838L45.4999 29.4967H45.6063L44.6486 31.838C44.6308 31.8785 44.6042 31.9089 44.5687 31.9292C44.5358 31.9495 44.5016 31.9596 44.4661 31.9596ZM44.6676 31.3059L44.8196 30.979H46.3095L46.4615 31.3059H44.6676Z" fill="#1A1A1A"/>
<path d="M48.0241 31.9596C47.9684 31.9596 47.9215 31.9406 47.8835 31.9026C47.8455 31.8646 47.8265 31.8177 47.8265 31.762V29.1889C47.8265 29.1306 47.8455 29.0837 47.8835 29.0482C47.9215 29.0102 47.9684 28.9912 48.0241 28.9912H48.7082C48.8983 28.9912 49.0668 29.0318 49.2137 29.1128C49.3607 29.1914 49.4747 29.3004 49.5558 29.4397C49.6394 29.5791 49.6812 29.7412 49.6812 29.9262C49.6812 30.0985 49.6394 30.2518 49.5558 30.3861C49.4747 30.5204 49.3607 30.6255 49.2137 30.7016C49.0668 30.7776 48.8983 30.8156 48.7082 30.8156H48.2217V31.762C48.2217 31.8177 48.2027 31.8646 48.1647 31.9026C48.1293 31.9406 48.0824 31.9596 48.0241 31.9596ZM49.6014 31.9596C49.5659 31.9596 49.533 31.952 49.5026 31.9368C49.4747 31.9216 49.4507 31.8975 49.4304 31.8646L48.7463 30.7624L49.1301 30.6521L49.7535 31.6555C49.7991 31.729 49.8054 31.7987 49.7725 31.8646C49.7395 31.9279 49.6825 31.9596 49.6014 31.9596ZM48.2217 30.4507H48.7082C48.8248 30.4507 48.9274 30.4292 49.0161 30.3861C49.1048 30.3405 49.1745 30.2784 49.2251 30.1999C49.2758 30.1188 49.3012 30.0276 49.3012 29.9262C49.3012 29.8147 49.2758 29.7159 49.2251 29.6297C49.1745 29.5436 49.1048 29.4765 49.0161 29.4283C48.9274 29.3802 48.8248 29.3561 48.7082 29.3561H48.2217V30.4507Z" fill="#1A1A1A"/>
<path d="M50.9957 31.9596C50.9425 31.9596 50.8956 31.9406 50.8551 31.9026C50.817 31.8646 50.798 31.8177 50.798 31.762V29.1889C50.798 29.1331 50.817 29.0862 50.8551 29.0482C50.8956 29.0102 50.9425 28.9912 50.9957 28.9912C51.0514 28.9912 51.0983 29.0102 51.1363 29.0482C51.1743 29.0862 51.1933 29.1331 51.1933 29.1889V30.3291L52.4514 29.071C52.4818 29.0406 52.5097 29.0204 52.535 29.0102C52.5603 28.9976 52.5869 28.9912 52.6148 28.9912C52.6781 28.9912 52.7238 29.0102 52.7516 29.0482C52.7795 29.0862 52.7896 29.1319 52.782 29.1851C52.7744 29.2357 52.7504 29.2826 52.7098 29.3257L51.7406 30.2987L52.7288 31.6441C52.7592 31.6872 52.7719 31.7341 52.7668 31.7848C52.7618 31.8329 52.744 31.8747 52.7136 31.9102C52.6832 31.9431 52.6427 31.9596 52.592 31.9596C52.5211 31.9596 52.4666 31.9317 52.4286 31.876L51.467 30.5723L51.1933 30.846V31.762C51.1933 31.8177 51.1743 31.8646 51.1363 31.9026C51.0983 31.9406 51.0514 31.9596 50.9957 31.9596Z" fill="#1A1A1A"/>
<path d="M54.1009 31.9596C54.0451 31.9596 53.9982 31.9406 53.9602 31.9026C53.9222 31.8646 53.9032 31.8177 53.9032 31.762V29.1889C53.9032 29.1306 53.9222 29.0837 53.9602 29.0482C53.9982 29.0102 54.0451 28.9912 54.1009 28.9912H55.8188C55.8771 28.9912 55.924 29.009 55.9594 29.0444C55.9949 29.0774 56.0127 29.1217 56.0127 29.1775C56.0127 29.2307 55.9949 29.2737 55.9594 29.3067C55.924 29.3396 55.8771 29.3561 55.8188 29.3561H54.2985V30.2797H55.3893C55.4476 30.2797 55.4945 30.2974 55.53 30.3329C55.5654 30.3658 55.5832 30.4089 55.5832 30.4621C55.5832 30.5153 55.5654 30.5597 55.53 30.5951C55.4945 30.6281 55.4476 30.6445 55.3893 30.6445H54.2985V31.5947H55.8188C55.8771 31.5947 55.924 31.6112 55.9594 31.6441C55.9949 31.6771 56.0127 31.7202 56.0127 31.7734C56.0127 31.8291 55.9949 31.8747 55.9594 31.9102C55.924 31.9431 55.8771 31.9596 55.8188 31.9596H54.1009Z" fill="#1A1A1A"/>
<path d="M58.0126 31.9596C57.9569 31.9596 57.91 31.9406 57.872 31.9026C57.834 31.8646 57.815 31.8177 57.815 31.762V28.9912H58.2102V31.762C58.2102 31.8177 58.1912 31.8646 58.1532 31.9026C58.1152 31.9406 58.0683 31.9596 58.0126 31.9596ZM56.994 29.3561C56.9408 29.3561 56.8964 29.3396 56.861 29.3067C56.828 29.2712 56.8116 29.2269 56.8116 29.1737C56.8116 29.1204 56.828 29.0774 56.861 29.0444C56.8964 29.009 56.9408 28.9912 56.994 28.9912H59.0274C59.0806 28.9912 59.1237 29.009 59.1566 29.0444C59.1921 29.0774 59.2098 29.1204 59.2098 29.1737C59.2098 29.2269 59.1921 29.2712 59.1566 29.3067C59.1237 29.3396 59.0806 29.3561 59.0274 29.3561H56.994Z" fill="#1A1A1A"/>
<path d="M60.4152 31.9596C60.3594 31.9596 60.3126 31.9406 60.2746 31.9026C60.2366 31.8646 60.2175 31.8177 60.2175 31.762V29.1889C60.2175 29.1306 60.2366 29.0837 60.2746 29.0482C60.3126 29.0102 60.3594 28.9912 60.4152 28.9912C60.4735 28.9912 60.5203 29.0102 60.5558 29.0482C60.5938 29.0837 60.6128 29.1306 60.6128 29.1889V31.762C60.6128 31.8177 60.5938 31.8646 60.5558 31.9026C60.5203 31.9406 60.4735 31.9596 60.4152 31.9596Z" fill="#1A1A1A"/>
<path d="M62.1358 31.9596C62.0801 31.9596 62.0332 31.9406 61.9952 31.9026C61.9597 31.8646 61.942 31.8177 61.942 31.762V29.1889C61.942 29.1306 61.9597 29.0837 61.9952 29.0482C62.0332 29.0102 62.0801 28.9912 62.1358 28.9912C62.1966 28.9912 62.2473 29.0153 62.2879 29.0634L63.945 31.2679V29.1889C63.945 29.1306 63.964 29.0837 64.002 29.0482C64.04 29.0102 64.0869 28.9912 64.1426 28.9912C64.2009 28.9912 64.2478 29.0102 64.2833 29.0482C64.3187 29.0837 64.3365 29.1306 64.3365 29.1889V31.762C64.3365 31.8177 64.3187 31.8646 64.2833 31.9026C64.2478 31.9406 64.2009 31.9596 64.1426 31.9596C64.1173 31.9596 64.0894 31.9545 64.059 31.9444C64.0311 31.9317 64.0083 31.914 63.9906 31.8912L62.3335 29.6868V31.762C62.3335 31.8177 62.3145 31.8646 62.2765 31.9026C62.241 31.9406 62.1941 31.9596 62.1358 31.9596Z" fill="#1A1A1A"/>
<path d="M66.9973 31.9976C66.7921 31.9976 66.5995 31.9596 66.4196 31.8836C66.2422 31.805 66.0864 31.6974 65.9521 31.5605C65.8203 31.4212 65.7164 31.259 65.6404 31.074C65.567 30.8891 65.5302 30.6889 65.5302 30.4735C65.5302 30.2607 65.567 30.063 65.6404 29.8806C65.7164 29.6956 65.8203 29.5347 65.9521 29.3979C66.0864 29.2585 66.2422 29.1496 66.4196 29.071C66.597 28.9925 66.7895 28.9532 66.9973 28.9532C67.1924 28.9532 67.3596 28.9786 67.499 29.0292C67.6409 29.0799 67.7828 29.1635 67.9247 29.2801C67.945 29.2953 67.9602 29.3118 67.9703 29.3295C67.983 29.3447 67.9906 29.3612 67.9931 29.3789C67.9982 29.3941 68.0007 29.4131 68.0007 29.4359C68.0007 29.4841 67.983 29.5246 67.9475 29.5575C67.9146 29.5905 67.8727 29.6082 67.8221 29.6107C67.7739 29.6133 67.7283 29.5968 67.6852 29.5613C67.5915 29.4802 67.4939 29.4182 67.3926 29.3751C67.2938 29.332 67.162 29.3105 66.9973 29.3105C66.8478 29.3105 66.7072 29.3409 66.5754 29.4017C66.4437 29.4625 66.3271 29.5461 66.2257 29.6526C66.1269 29.759 66.0497 29.8831 65.9939 30.025C65.9382 30.1644 65.9103 30.3139 65.9103 30.4735C65.9103 30.6357 65.9382 30.7877 65.9939 30.9296C66.0497 31.069 66.1269 31.1919 66.2257 31.2983C66.3271 31.4047 66.4437 31.4883 66.5754 31.5491C66.7072 31.6074 66.8478 31.6365 66.9973 31.6365C67.1265 31.6365 67.2482 31.615 67.3622 31.5719C67.4787 31.5263 67.5902 31.4642 67.6966 31.3857C67.7423 31.3527 67.7866 31.3388 67.8297 31.3439C67.8753 31.3464 67.9133 31.3642 67.9437 31.3971C67.9741 31.4275 67.9893 31.4706 67.9893 31.5263C67.9893 31.5517 67.9842 31.577 67.9741 31.6023C67.9665 31.6251 67.9513 31.6467 67.9285 31.6669C67.7942 31.7784 67.6485 31.862 67.4914 31.9178C67.3343 31.971 67.1696 31.9976 66.9973 31.9976ZM67.9893 31.5263L67.6092 31.4503V30.77H67.0847C67.029 30.77 66.9821 30.7535 66.9441 30.7206C66.9061 30.6876 66.8871 30.6458 66.8871 30.5951C66.8871 30.5445 66.9061 30.5026 66.9441 30.4697C66.9821 30.4368 67.029 30.4203 67.0847 30.4203H67.7955C67.8537 30.4203 67.9006 30.4393 67.9361 30.4773C67.9716 30.5128 67.9893 30.5597 67.9893 30.6179V31.5263Z" fill="#1A1A1A"/>
<path d="M64.3343 20.204C64.3343 21.9454 62.8898 23.357 61.1079 23.357C59.3261 23.357 57.8816 21.9454 57.8816 20.204C57.8816 18.4626 59.3261 17.0509 61.1079 17.0509C62.8898 17.0509 64.3343 18.4626 64.3343 20.204Z" fill="#0004FF"/>
<path d="M30.8772 26.911C30.5124 26.911 30.2056 26.7945 29.9569 26.5614C29.7247 26.3117 29.6087 26.0038 29.6087 25.6376V18.4964C29.6087 17.4477 29.3516 16.6737 28.8376 16.1743C28.3235 15.6583 27.6519 15.4002 26.8228 15.4002C25.9605 15.4002 25.2474 15.6999 24.6836 16.2991C24.1363 16.8984 23.8627 17.6641 23.8627 18.5963H21.7982C21.7982 17.5143 22.0303 16.5655 22.4946 15.7498C22.959 14.9175 23.6057 14.2683 24.4348 13.8022C25.2806 13.3361 26.2424 13.1031 27.3202 13.1031C28.2655 13.1031 29.1029 13.3112 29.8325 13.7273C30.5622 14.1435 31.126 14.7594 31.524 15.575C31.9385 16.374 32.1458 17.3478 32.1458 18.4964V25.6376C32.1458 26.0038 32.0298 26.3117 31.7976 26.5614C31.5654 26.7945 31.2587 26.911 30.8772 26.911ZM14.2862 26.911C13.9213 26.911 13.6146 26.7945 13.3658 26.5614C13.1337 26.3117 13.0176 26.0038 13.0176 25.6376V14.5263C13.0176 14.1435 13.1337 13.8355 13.3658 13.6025C13.6146 13.3694 13.9213 13.2529 14.2862 13.2529C14.6676 13.2529 14.9743 13.3694 15.2065 13.6025C15.4387 13.8355 15.5547 14.1435 15.5547 14.5263V25.6376C15.5547 26.0038 15.4387 26.3117 15.2065 26.5614C14.9743 26.7945 14.6676 26.911 14.2862 26.911ZM22.5941 26.911C22.2293 26.911 21.9225 26.7945 21.6738 26.5614C21.4416 26.3117 21.3256 26.0038 21.3256 25.6376V18.4964C21.3256 17.4477 21.0685 16.6737 20.5545 16.1743C20.0404 15.6583 19.3688 15.4002 18.5396 15.4002C17.6773 15.4002 16.9643 15.6999 16.4005 16.2991C15.8367 16.8984 15.5547 17.6641 15.5547 18.5963H13.9877C13.9877 17.5143 14.2032 16.5655 14.6344 15.7498C15.0656 14.9175 15.6625 14.2683 16.4253 13.8022C17.1882 13.3361 18.0587 13.1031 19.0371 13.1031C19.9824 13.1031 20.8198 13.3112 21.5494 13.7273C22.2791 14.1435 22.8429 14.7594 23.2409 15.575C23.6554 16.374 23.8627 17.3478 23.8627 18.4964V25.6376C23.8627 26.0038 23.7466 26.3117 23.5145 26.5614C23.2823 26.7945 22.9755 26.911 22.5941 26.911Z" fill="#1A1A1A"/>
<path d="M37.8787 26.886C37.5139 26.886 37.2071 26.7695 36.9584 26.5364C36.7262 26.2867 36.6102 25.9788 36.6102 25.6126V14.5014C36.6102 14.1185 36.7262 13.8105 36.9584 13.5775C37.2071 13.3445 37.5139 13.2279 37.8787 13.2279C38.2602 13.2279 38.5669 13.3445 38.7991 13.5775C39.0313 13.8105 39.1473 14.1185 39.1473 14.5014V25.6126C39.1473 25.9788 39.0313 26.2867 38.7991 26.5364C38.5669 26.7695 38.2602 26.886 37.8787 26.886Z" fill="#1A1A1A"/>
<path d="M45.0862 18.3466C45.0862 17.3478 45.3267 16.4573 45.8076 15.6749C46.3051 14.8759 46.9684 14.2433 47.7975 13.7773C48.6267 13.3112 49.5387 13.0781 50.5337 13.0781C51.5287 13.0781 52.2666 13.2446 52.7475 13.5775C53.245 13.8938 53.4357 14.2766 53.3196 14.7261C53.2699 14.9591 53.1704 15.1422 53.0211 15.2754C52.8885 15.3919 52.7309 15.4668 52.5485 15.5001C52.3661 15.5334 52.1671 15.5251 51.9515 15.4752C50.8902 15.2588 49.9367 15.2421 49.091 15.4252C48.2453 15.6083 47.5737 15.9496 47.0762 16.4489C46.5953 16.9483 46.3548 17.5809 46.3548 18.3466H45.0862ZM45.1111 26.886C44.7131 26.886 44.4063 26.7861 44.1908 26.5864C43.9752 26.37 43.8674 26.0537 43.8674 25.6376V14.4764C43.8674 14.0769 43.9752 13.7689 44.1908 13.5525C44.4063 13.3361 44.7131 13.2279 45.1111 13.2279C45.5257 13.2279 45.8325 13.3361 46.0315 13.5525C46.247 13.7523 46.3548 14.0602 46.3548 14.4764V25.6376C46.3548 26.0371 46.247 26.345 46.0315 26.5614C45.8325 26.7778 45.5257 26.886 45.1111 26.886Z" fill="#1A1A1A"/>
<path d="M60.6398 26.9859C59.4293 26.9859 58.3431 26.6863 57.3813 26.087C56.4195 25.4711 55.6567 24.6471 55.0929 23.6151C54.5456 22.5664 54.272 21.3845 54.272 20.0695C54.272 18.7544 54.5705 17.5726 55.1675 16.5239C55.781 15.4752 56.6019 14.6512 57.63 14.0519C58.6747 13.436 59.8438 13.1281 61.1373 13.1281C62.4307 13.1281 63.5915 13.436 64.6197 14.0519C65.6478 14.6512 66.4604 15.4752 67.0573 16.5239C67.6709 17.5726 67.9777 18.7544 67.9777 20.0695H67.0076C67.0076 21.3845 66.7257 22.5664 66.1619 23.6151C65.6146 24.6471 64.8601 25.4711 63.8983 26.087C62.9365 26.6863 61.8503 26.9859 60.6398 26.9859ZM61.1373 24.7387C61.983 24.7387 62.7375 24.5389 63.4008 24.1394C64.0642 23.7233 64.5865 23.1656 64.9679 22.4665C65.3493 21.7507 65.54 20.9517 65.54 20.0695C65.54 19.1706 65.3493 18.3716 64.9679 17.6724C64.5865 16.9566 64.0642 16.399 63.4008 15.9995C62.7375 15.5834 61.983 15.3753 61.1373 15.3753C60.3081 15.3753 59.5536 15.5834 58.8737 15.9995C58.2104 16.399 57.6798 16.9566 57.2818 17.6724C56.9004 18.3716 56.7097 19.1706 56.7097 20.0695C56.7097 20.9517 56.9004 21.7507 57.2818 22.4665C57.6798 23.1656 58.2104 23.7233 58.8737 24.1394C59.5536 24.5389 60.3081 24.7387 61.1373 24.7387ZM66.7091 26.911C66.3443 26.911 66.0375 26.7945 65.7888 26.5614C65.5566 26.3117 65.4405 26.0038 65.4405 25.6376V21.8173L65.9131 19.1706L67.9777 20.0695V25.6376C67.9777 26.0038 67.8533 26.3117 67.6046 26.5614C67.3724 26.7945 67.0739 26.911 66.7091 26.911Z" fill="#1A1A1A"/>
<ellipse cx="37.8258" cy="9.7911" rx="1.79652" ry="1.75985" fill="#1A1A1A"/>
<path d="M12.0512 4.02574C14.0134 6.0911 14.1794 9.17201 12.5301 11.18C12.3189 11.4371 11.9336 11.4243 11.7058 11.1818C11.4801 10.9415 11.4954 10.5666 11.6934 10.3031C12.8281 8.7938 12.7297 6.48073 11.182 4.85158L11.1819 4.85152C10.7805 4.42894 10.3064 4.08559 9.78845 3.84039C9.27058 3.59522 8.72152 3.45412 8.17402 3.42117C7.62676 3.38823 7.09238 3.46391 6.60013 3.63921C6.31713 3.73999 6.0504 3.87283 5.80434 4.03452C5.52922 4.21531 5.15476 4.20651 4.92939 3.96655C4.70126 3.72364 4.71285 3.33794 4.98371 3.14382C5.33707 2.89058 5.72455 2.68474 6.13732 2.53172L6.19791 2.50973C6.82575 2.28615 7.49851 2.18813 8.18007 2.22075L8.24606 2.22432C8.92815 2.26538 9.60493 2.43643 10.2401 2.72809L10.3015 2.75669C10.9544 3.06578 11.5489 3.497 12.0512 4.02574Z" fill="#1A1A1A"/>
<path d="M3.82378 11.8102C1.85719 9.7402 1.73871 6.6085 3.45616 4.54731C3.66921 4.29163 4.0543 4.30439 4.2821 4.54703C4.50768 4.78732 4.49274 5.16227 4.29222 5.42385C3.10583 6.9715 3.16665 9.32542 4.71915 10.9595L4.7192 10.9596C5.12064 11.3822 5.59706 11.7233 6.11951 11.9642C6.64188 12.2051 7.1975 12.34 7.75315 12.3652C8.30856 12.3904 8.85251 12.3056 9.35517 12.1204C9.64966 12.0119 9.92747 11.8699 10.1839 11.6979C10.4573 11.5145 10.832 11.5235 11.0575 11.7636C11.2854 12.0065 11.2739 12.3918 11.0046 12.5878C10.6378 12.8549 10.236 13.0732 9.80868 13.2368L9.74679 13.26C9.10568 13.4962 8.42083 13.6057 7.72899 13.5828L7.66201 13.5802C6.96976 13.5488 6.28486 13.3855 5.644 13.0992L5.58212 13.0711C4.92356 12.7674 4.32606 12.3389 3.82378 11.8102Z" fill="#1A1A1A"/>
<path d="M5.32403 10.4099C4.06596 9.08568 3.95348 7.11593 5.00266 5.83469C5.1379 5.66953 5.38507 5.67774 5.5312 5.83333C5.67596 5.98746 5.66617 6.22796 5.53944 6.39722C4.81825 7.36047 4.88609 8.83897 5.87828 9.88332L5.87831 9.88335C6.13581 10.1544 6.43961 10.3749 6.77127 10.5328C7.10289 10.6906 7.45425 10.7819 7.8044 10.804C8.1544 10.8261 8.49595 10.7787 8.81038 10.6676C8.99044 10.6039 9.16011 10.5198 9.31664 10.4174C9.49333 10.3018 9.7335 10.3074 9.87805 10.4613C10.0244 10.6172 10.017 10.8646 9.84301 10.9889C9.61806 11.1495 9.37134 11.28 9.10844 11.3768L9.06973 11.3908C8.6687 11.5326 8.2387 11.594 7.80283 11.5718L7.76062 11.5694C7.32439 11.5418 6.89131 11.4311 6.48458 11.2434L6.4453 11.225C6.02723 11.026 5.64621 10.749 5.32403 10.4099Z" fill="#1A1A1A"/>
<path d="M10.5725 5.36355C11.8305 6.68776 11.943 8.65751 10.8938 9.93875C10.7586 10.1039 10.5114 10.0957 10.3653 9.94011C10.2205 9.78598 10.2303 9.54548 10.357 9.37621C11.0782 8.41296 11.0104 6.93447 10.0182 5.89012L10.0182 5.89008C9.76067 5.61902 9.45687 5.3985 9.12521 5.24066C8.79359 5.08286 8.44224 4.99155 8.09209 4.96943C7.74209 4.94732 7.40053 4.9947 7.08611 5.10589C6.90604 5.16956 6.73637 5.25361 6.57985 5.35601C6.40316 5.47161 6.16299 5.466 6.01843 5.3121C5.87208 5.15628 5.87952 4.90882 6.05347 4.78457C6.27843 4.62389 6.52515 4.49343 6.78805 4.39662L6.82675 4.38267C7.22779 4.24086 7.65778 4.17945 8.09366 4.20162L8.13586 4.20403C8.57209 4.23159 9.00517 4.3423 9.41191 4.53007L9.45118 4.54848C9.86925 4.74743 10.2503 5.02439 10.5725 5.36355Z" fill="#1A1A1A"/>
<ellipse cx="7.93832" cy="7.90317" rx="1.65316" ry="1.65317" fill="#FF0A0A"/>
</svg>
