<svg width="224" height="83" viewBox="0 0 224 83" fill="none" xmlns="http://www.w3.org/2000/svg">
<path fill-rule="evenodd" clip-rule="evenodd" d="M19.7491 13.8636C20.1472 13.8575 20.8252 13.9504 21.2571 14.0686C21.6889 14.1868 22.3126 14.4412 22.6444 14.6342C22.9761 14.8272 23.5323 15.2734 23.8809 15.6255C24.2838 16.0332 24.6759 16.6048 24.9594 17.2006C25.3539 18.0267 25.4118 18.2691 25.4588 19.281C25.4974 20.1373 25.4588 20.6088 25.302 21.1503C25.1862 21.5483 24.9968 22.0633 24.8798 22.296C24.7628 22.5288 24.3671 23.0437 24.0003 23.4417C23.6336 23.8397 23.0425 24.3402 22.6866 24.5525C22.3319 24.7659 21.6889 25.0301 21.2571 25.141C20.7033 25.2821 20.1532 25.3255 19.3872 25.2881C18.4402 25.2423 18.1784 25.1772 17.3364 24.778C16.7018 24.4765 16.13 24.087 15.6668 23.6395C15.1939 23.1824 14.8296 22.6819 14.5581 22.1151C14.306 21.5869 14.1142 20.9549 14.0466 20.4267C13.9863 19.9467 13.9839 19.2448 14.043 18.7986C14.1069 18.3126 14.3132 17.671 14.5871 17.1102C14.8525 16.5662 15.2711 15.9608 15.639 15.5918C15.9756 15.2541 16.6041 14.797 17.0348 14.5751C17.4655 14.3544 18.0904 14.1072 18.4221 14.024C18.7539 13.9419 19.351 13.8696 19.7491 13.8636Z" fill="white"/>
<path fill-rule="evenodd" clip-rule="evenodd" d="M19.8949 0.00936555C21.5107 0.043134 22.3938 0.121525 23.2915 0.310869C23.9587 0.450767 25.0505 0.746241 25.7177 0.966942C26.3849 1.18644 27.4767 1.63869 28.1439 1.97035C28.8111 2.302 29.875 2.91466 30.5095 3.33314C31.2701 3.83364 32.1799 4.6079 33.1844 5.6089C34.2531 6.6726 34.9701 7.52043 35.5948 8.45147C36.0837 9.18111 36.7024 10.2123 36.9693 10.7429C37.2361 11.2736 37.6631 12.3324 37.9167 13.0946C38.1714 13.8568 38.4614 14.888 38.5621 15.3861C38.6627 15.8829 38.8035 16.7513 38.8738 17.3157C38.9442 17.8801 39.0012 18.8292 39 19.4262C39 20.0232 38.943 21.0001 38.8738 21.597C38.8047 22.194 38.6652 23.0889 38.5633 23.587C38.4614 24.0838 38.2139 24.9799 38.0149 25.5769C37.8148 26.1739 37.4072 27.1773 37.1063 27.808C36.8067 28.4388 36.2123 29.4687 35.7865 30.0995C35.3607 30.7302 34.7905 31.4888 34.0275 32.3306L33.0521 31.3055C32.5147 30.7411 31.9422 30.1043 31.48 29.4964L32.0865 28.6522C32.4201 28.1879 32.9357 27.3606 33.2329 26.8131C33.5301 26.2655 33.9644 25.2477 34.1985 24.5518C34.4327 23.8559 34.7129 22.7428 34.8233 22.0795C34.9749 21.1593 35.0077 20.4019 34.9591 18.8835C34.9082 17.2988 34.833 16.6476 34.5879 15.6876C34.4181 15.0243 34.1633 14.1825 34.0214 13.8182C33.8795 13.454 33.5095 12.6665 33.1989 12.0695C32.8896 11.4725 32.3109 10.5499 31.9143 10.0193C31.5188 9.48865 30.7812 8.64685 30.2754 8.14997C29.7707 7.65189 28.839 6.89933 28.2046 6.47843C27.5701 6.05753 26.6154 5.50638 26.0817 5.25433C25.5479 5.00348 24.6466 4.65856 24.0801 4.48971C23.5135 4.32087 22.6947 4.11585 22.2604 4.03384C21.8261 3.95183 20.5718 3.88188 19.4703 3.87826C17.9879 3.87465 17.2018 3.92892 16.4375 4.08932C15.8698 4.20871 14.9284 4.46559 14.3449 4.66097C13.7614 4.85514 12.8334 5.23865 12.2826 5.51121C11.7319 5.78497 11.1314 6.1106 10.9482 6.23482C10.7651 6.36024 10.5734 6.46396 10.5237 6.46517C10.4739 6.46758 9.88677 5.86819 9.21957 5.13252C8.55236 4.39806 7.99312 3.7444 7.97614 3.68168C7.95916 3.61897 8.42377 3.27164 9.00728 2.91104C9.59078 2.54923 10.5867 2.01376 11.2212 1.71829C11.8556 1.42402 12.8103 1.04654 13.3441 0.881315C13.8779 0.714885 14.7246 0.48936 15.2244 0.379612C15.7254 0.269865 16.4897 0.132379 16.9228 0.0720784C17.3558 0.0117776 18.6939 -0.0159608 19.8949 0.00936555ZM4.82208 6.58939C4.87181 6.58577 5.17266 6.86436 5.48928 7.20928C5.8059 7.5542 6.38212 8.16565 7.47028 9.29569L6.82733 10.2002C6.47432 10.6971 5.93206 11.5931 5.62272 12.1901C5.3146 12.7871 4.91548 13.682 4.73594 14.18C4.55762 14.6769 4.30044 15.5453 4.16458 16.1097C4.00687 16.7645 3.89405 17.745 3.85402 18.8232C3.80671 20.0775 3.8431 20.8529 3.99717 21.8382C4.10999 22.5679 4.38293 23.7076 4.60372 24.3709C4.8245 25.0342 5.20905 25.9833 5.46017 26.4814C5.71128 26.9783 6.19045 27.7923 6.52527 28.2904C6.86009 28.7873 7.73958 29.7992 8.47957 30.5372C9.29114 31.3465 10.2361 32.1449 10.8573 32.5477C11.425 32.9155 12.2984 33.4039 12.7982 33.6319C13.2992 33.861 14.1714 34.1939 14.7392 34.3712C15.3069 34.5496 16.2616 34.78 16.8621 34.8837C17.6907 35.026 18.4367 35.055 19.9555 35.0043C21.2984 34.9597 22.2968 34.8596 22.9883 34.7004C23.5548 34.5702 24.3736 34.3302 24.8079 34.1673C25.2422 34.0045 26.0331 33.6488 26.5669 33.3774C27.1007 33.106 27.7012 32.772 28.2653 32.3909L30.8746 35.225L30.2365 35.6725C29.886 35.9173 28.9725 36.4431 28.2046 36.8399C27.4367 37.2367 26.2357 37.7516 25.5358 37.9832C24.8358 38.2147 23.852 38.4897 23.3522 38.5922C22.8512 38.6959 21.7873 38.8443 20.9866 38.9202C19.8839 39.0264 19.1476 39.0264 17.9539 38.9215C17.0865 38.8443 15.7084 38.6187 14.8908 38.421C14.0732 38.222 12.9001 37.8626 12.2826 37.6214C11.6652 37.3802 10.9422 37.0738 10.6753 36.94C10.4084 36.8073 9.78002 36.4527 9.28022 36.1537C8.77921 35.8546 7.93368 35.2733 7.39992 34.862C6.86615 34.4508 5.91144 33.574 5.27699 32.9131C4.64254 32.2522 3.78973 31.2259 3.38213 30.6337C2.97331 30.0416 2.3522 28.9863 2.0004 28.2904C1.64982 27.5946 1.15851 26.3994 0.907399 25.6372C0.6575 24.875 0.350586 23.7076 0.226849 23.0443C0.0521628 22.1168 0 21.2678 0 19.3659C0 17.4604 0.0509498 16.6307 0.22321 15.7479C0.345733 15.1171 0.611404 14.0872 0.813992 13.4564C1.01537 12.8257 1.42418 11.7958 1.72139 11.165C2.01739 10.5343 2.6021 9.50433 3.01941 8.87358C3.43793 8.24283 3.99353 7.4734 4.25556 7.16224C4.51637 6.8523 4.77234 6.59421 4.82208 6.58939ZM19.9555 6.76305C20.7319 6.7932 21.7812 6.92104 22.3211 7.0525C22.8548 7.18033 23.6737 7.42877 24.1407 7.60365C24.6078 7.77852 25.3999 8.15841 25.8997 8.44906C26.4007 8.74092 27.2196 9.32342 27.7194 9.74553C28.2204 10.1676 28.9773 10.972 29.4031 11.5328C29.8277 12.0936 30.4088 13.0126 30.6927 13.577C30.9765 14.1415 31.3465 15.0363 31.5152 15.567C31.6838 16.0976 31.8888 16.9925 31.9713 17.5569C32.0647 18.1985 32.095 19.1681 32.0513 20.1498C32.0004 21.3052 31.9009 22.0035 31.6728 22.8031C31.5018 23.4 31.1379 24.3492 30.8649 24.9136C30.5908 25.478 30.1395 26.2535 29.357 27.3377L29.0441 27C28.8718 26.8143 28.2847 26.1871 26.7489 24.5518L27.2244 23.7377C27.4852 23.2903 27.8261 22.516 27.9826 22.0191C28.224 21.2485 28.264 20.865 28.2604 19.4262C28.2555 17.9018 28.2228 17.6437 27.9195 16.773C27.7351 16.2423 27.3736 15.4548 27.1164 15.0243C26.8593 14.5937 26.3304 13.893 25.9409 13.4685C25.5515 13.044 24.905 12.4772 24.5046 12.2082C24.1043 11.9405 23.3947 11.5485 22.9276 11.3363C22.4606 11.124 21.683 10.8635 21.1989 10.7562C20.7149 10.65 19.8694 10.5632 19.3186 10.5644C18.7679 10.5656 17.9624 10.6404 17.5293 10.7308C17.0962 10.8225 16.3587 11.0661 15.8916 11.2748C15.0825 11.6341 15.0327 11.6426 14.8459 11.4388C14.738 11.3218 14.1787 10.6959 13.6025 10.0494C12.8856 9.24383 12.5883 8.82655 12.6611 8.72283C12.7194 8.63961 13.2252 8.34776 13.7833 8.07279C14.3425 7.79781 15.2086 7.44928 15.7097 7.29852C16.2095 7.14777 17.0562 6.9536 17.59 6.86677C18.1759 6.7715 19.1136 6.73049 19.9555 6.76305ZM9.46583 11.6474C9.50343 11.6474 10.1051 12.2721 12.0704 14.4213L11.7319 14.9941C11.5451 15.3089 11.2709 15.8661 11.1205 16.2303C10.9713 16.5945 10.7614 17.3277 10.6547 17.8584C10.5176 18.5362 10.48 19.1633 10.5273 19.9689C10.5697 20.707 10.7044 21.4584 10.9046 22.0795C11.0756 22.6101 11.4213 23.3976 11.6725 23.8282C11.9248 24.2587 12.5944 25.0728 13.1621 25.6372C13.7299 26.2016 14.5487 26.8673 14.9818 27.1182C15.4149 27.3678 16.207 27.7188 16.7408 27.8973C17.6142 28.1891 17.8872 28.2217 19.4703 28.2241C20.7586 28.2265 21.3918 28.1747 21.8358 28.0336C22.1694 27.9274 22.7359 27.7103 23.7489 27.2653L24.7642 28.3507C25.3235 28.9477 25.8888 29.5857 26.2636 30.0995L25.6874 30.4637C25.3708 30.6639 24.7012 30.9967 24.2014 31.2018C23.7004 31.4068 22.8815 31.6878 22.3817 31.8253C21.6332 32.0303 21.1067 32.0749 19.4096 32.0809C17.6191 32.0858 17.2115 32.0508 16.3162 31.8084C15.7485 31.654 14.9029 31.3718 14.4359 31.1788C13.9689 30.9871 13.0687 30.4902 12.4343 30.0753C11.7998 29.6593 10.8791 28.9115 10.3878 28.4134C9.89648 27.9142 9.25839 27.1532 8.9721 26.7226C8.6858 26.2921 8.22968 25.478 7.95794 24.9136C7.68742 24.3492 7.32713 23.3735 7.15608 22.7428C6.94743 21.9721 6.82127 21.1231 6.77153 20.1498C6.71451 19.0511 6.74848 18.3975 6.90982 17.4363C7.02749 16.7404 7.26041 15.7901 7.42782 15.3258C7.59644 14.8614 7.8706 14.2102 8.03679 13.8785C8.2042 13.5469 8.57905 12.9089 8.86898 12.4615C9.16012 12.014 9.42822 11.6474 9.46583 11.6474Z" fill="white"/>
<ellipse cx="119.161" cy="23.1121" rx="6.23943" ry="6.11209" fill="white"/>
<path d="M211.227 58.9712C211.227 65.0192 206.21 69.922 200.021 69.922C193.833 69.922 188.816 65.0192 188.816 58.9712C188.816 52.9232 193.833 48.0204 200.021 48.0204C206.21 48.0204 211.227 52.9232 211.227 58.9712Z" fill="white"/>
<path d="M95.0279 82.2651C93.7608 82.2651 92.6953 81.8604 91.8314 81.051C91.0251 80.1838 90.622 79.1143 90.622 77.8424V53.0407C90.622 49.3985 89.7293 46.7102 87.9439 44.9758C86.1585 43.1836 83.826 42.2875 80.9463 42.2875C77.9515 42.2875 75.475 43.3282 73.5168 45.4094C71.6162 47.4907 70.6659 50.1501 70.6659 53.3876H63.4956C63.4956 49.6298 64.3019 46.3344 65.9145 43.5016C67.5271 40.611 69.7733 38.3563 72.6529 36.7375C75.5902 35.1188 78.9306 34.3094 82.6741 34.3094C85.9569 34.3094 88.8654 35.032 91.3995 36.4774C93.9336 37.9227 95.8918 40.0618 97.274 42.8946C98.7138 45.6696 99.4337 49.0516 99.4337 53.0407V77.8424C99.4337 79.1143 99.0306 80.1838 98.2243 81.051C97.418 81.8604 96.3525 82.2651 95.0279 82.2651ZM37.4059 82.2651C36.1388 82.2651 35.0734 81.8604 34.2095 81.051C33.4032 80.1838 33 79.1143 33 77.8424V39.2524C33 37.9227 33.4032 36.8531 34.2095 36.0438C35.0734 35.2344 36.1388 34.8297 37.4059 34.8297C38.7305 34.8297 39.796 35.2344 40.6023 36.0438C41.4086 36.8531 41.8118 37.9227 41.8118 39.2524V77.8424C41.8118 79.1143 41.4086 80.1838 40.6023 81.051C39.796 81.8604 38.7305 82.2651 37.4059 82.2651ZM66.2601 82.2651C64.993 82.2651 63.9275 81.8604 63.0636 81.051C62.2573 80.1838 61.8542 79.1143 61.8542 77.8424V53.0407C61.8542 49.3985 60.9615 46.7102 59.1761 44.9758C57.3907 43.1836 55.0582 42.2875 52.1785 42.2875C49.1837 42.2875 46.7072 43.3282 44.749 45.4094C42.7908 47.4907 41.8118 50.1501 41.8118 53.3876H36.3692C36.3692 49.6298 37.1179 46.3344 38.6153 43.5016C40.1128 40.611 42.1861 38.3563 44.8354 36.7375C47.4847 35.1188 50.5083 34.3094 53.9063 34.3094C57.1891 34.3094 60.0976 35.032 62.6317 36.4774C65.1658 37.9227 67.124 40.0618 68.5062 42.8946C69.946 45.6696 70.6659 49.0516 70.6659 53.0407V77.8424C70.6659 79.1143 70.2628 80.1838 69.4565 81.051C68.6502 81.8604 67.5847 82.2651 66.2601 82.2651Z" fill="white"/>
<path d="M119.345 82.1784C118.078 82.1784 117.012 81.7737 116.148 80.9643C115.342 80.0971 114.939 79.0276 114.939 77.7557V39.1657C114.939 37.836 115.342 36.7664 116.148 35.957C117.012 35.1477 118.078 34.743 119.345 34.743C120.669 34.743 121.735 35.1477 122.541 35.957C123.347 36.7664 123.75 37.836 123.75 39.1657V77.7557C123.75 79.0276 123.347 80.0971 122.541 80.9643C121.735 81.7737 120.669 82.1784 119.345 82.1784Z" fill="white"/>
<path d="M144.377 52.5204C144.377 49.0516 145.212 45.9587 146.882 43.2415C148.61 40.4664 150.914 38.2696 153.793 36.6508C156.673 35.032 159.84 34.2227 163.296 34.2227C166.752 34.2227 169.315 34.8008 170.985 35.957C172.713 37.0555 173.375 38.3852 172.972 39.9461C172.799 40.7555 172.453 41.3914 171.935 41.8539C171.474 42.2586 170.927 42.5188 170.294 42.6344C169.66 42.75 168.969 42.7211 168.22 42.5477C164.534 41.7961 161.223 41.7383 158.285 42.3743C155.348 43.0102 153.016 44.1954 151.288 45.9298C149.618 47.6641 148.783 49.861 148.783 52.5204H144.377ZM144.463 82.1784C143.081 82.1784 142.015 81.8315 141.267 81.1377C140.518 80.3862 140.144 79.2877 140.144 77.8424V39.0789C140.144 37.6914 140.518 36.6219 141.267 35.8703C142.015 35.1188 143.081 34.743 144.463 34.743C145.903 34.743 146.968 35.1188 147.66 35.8703C148.408 36.5641 148.783 37.6336 148.783 39.0789V77.8424C148.783 79.2299 148.408 80.2995 147.66 81.051C146.968 81.8026 145.903 82.1784 144.463 82.1784Z" fill="white"/>
<path d="M198.395 82.5253C194.191 82.5253 190.419 81.4846 187.078 79.4034C183.738 77.2643 181.089 74.4026 179.13 70.8182C177.23 67.176 176.279 63.0712 176.279 58.504C176.279 53.9368 177.316 49.8321 179.39 46.1899C181.52 42.5477 184.371 39.686 187.942 37.6047C191.57 35.4656 195.631 34.3961 200.123 34.3961C204.615 34.3961 208.647 35.4656 212.218 37.6047C215.788 39.686 218.61 42.5477 220.684 46.1899C222.815 49.8321 223.88 53.9368 223.88 58.504H220.511C220.511 63.0712 219.532 67.176 217.574 70.8182C215.673 74.4026 213.053 77.2643 209.712 79.4034C206.372 81.4846 202.6 82.5253 198.395 82.5253ZM200.123 74.7205C203.06 74.7205 205.681 74.0268 207.985 72.6393C210.288 71.1939 212.102 69.2572 213.427 66.8291C214.752 64.3431 215.414 61.5681 215.414 58.504C215.414 55.3821 214.752 52.6071 213.427 50.179C212.102 47.693 210.288 45.7563 207.985 44.3688C205.681 42.9235 203.06 42.2008 200.123 42.2008C197.243 42.2008 194.623 42.9235 192.262 44.3688C189.958 45.7563 188.115 47.693 186.733 50.179C185.408 52.6071 184.746 55.3821 184.746 58.504C184.746 61.5681 185.408 64.3431 186.733 66.8291C188.115 69.2572 189.958 71.1939 192.262 72.6393C194.623 74.0268 197.243 74.7205 200.123 74.7205ZM219.474 82.2651C218.207 82.2651 217.142 81.8604 216.278 81.051C215.472 80.1838 215.069 79.1143 215.069 77.8424V64.5744L216.71 55.3821L223.88 58.504V77.8424C223.88 79.1143 223.448 80.1838 222.584 81.051C221.778 81.8604 220.741 82.2651 219.474 82.2651Z" fill="white"/>
</svg>
